<svg xmlns="http://www.w3.org/2000/svg" width="88" height="31" viewBox="0 0 23.283 8.202">
  <title>Accessible Webmastery</title>
  <path fill="#f2e1c4" d="M0 0h23.283v8.202H0z"/>
  <path fill="#3b2f25" d="m5.556 6.88-.328-2.2h.265l.204 1.447.328-1.28h.12l.328 1.283.173-1.45h.244l-.325 2.2h-.144l-.353-1.407-.36 1.407Zm2.318.034q-.173 0-.321-.052-.145-.057-.25-.163-.103-.106-.163-.264-.056-.16-.056-.36 0-.205.056-.364.06-.162.163-.268.102-.109.236-.165.137-.06.293-.06.137 0 .257.049.124.046.212.141.092.095.145.243.052.145.052.343 0 .031-.003.07 0 .036-.004.064H7.373q.007.144.05.25.045.103.112.17.07.063.16.095t.19.032q.08 0 .151-.018.074-.018.138-.053.063-.039.116-.099l.163.159q-.071.081-.163.141-.088.057-.194.081-.102.028-.222.028m-.49-1.016h.815q0-.105-.029-.187-.028-.084-.077-.14-.05-.06-.12-.089-.07-.032-.159-.032-.081 0-.152.029-.067.024-.127.08-.056.054-.098.138-.04.085-.053.201m2.236 1.02q-.091 0-.18-.028-.084-.028-.155-.081-.07-.057-.127-.13l-.077.2h-.209V4.526h.336v.028q-.022.022-.029.046-.003.025-.003.085v.797q.039-.056.088-.106.05-.05.11-.084.06-.04.126-.057.07-.017.134-.017.149 0 .268.052.12.05.209.156.088.102.134.257t.046.367q0 .219-.057.385-.053.162-.148.271-.095.106-.215.16-.12.052-.25.052m-.046-.254q.082 0 .156-.028.074-.032.13-.099.06-.07.092-.183.035-.117.035-.283 0-.151-.028-.264-.028-.117-.085-.19-.053-.078-.13-.114-.074-.038-.163-.038-.12 0-.211.074-.092.074-.145.211-.05.134-.05.318 0 .137.022.25.025.11.07.187.05.078.124.12.074.039.183.039m.974.215V5.256h.265v.149q.038-.06.088-.1.05-.042.106-.063.06-.024.116-.024.067 0 .124.028.06.024.098.077.043.05.06.12.036-.07.085-.12.053-.049.123-.077t.149-.028.14.031q.064.032.103.089t.056.137.015.176V6.88h-.269V5.743q0-.134-.017-.197-.014-.067-.046-.085-.028-.021-.067-.021-.06 0-.113.056-.053.053-.088.141-.032.085-.032.18V6.88h-.264V5.761q0-.19-.032-.254-.032-.067-.12-.067-.039 0-.078.028-.035.025-.067.07-.028.043-.05.113-.017.068-.017.152V6.88zm2.35.039q-.272 0-.42-.124-.148-.127-.148-.324 0-.134.06-.24.063-.106.176-.18t.265-.113q.155-.042.338-.042h.103q.056 0 .116.007l.127.01.01.223q-.056-.007-.116-.01-.056-.008-.116-.008-.06-.003-.11-.003-.13 0-.233.02-.102.022-.176.06-.07.04-.11.103-.035.06-.035.145 0 .07.025.116t.064.074q.042.028.098.043.057.01.124.01.127 0 .222-.039.099-.042.166-.123t.102-.198q.036-.12.036-.278 0-.226-.053-.353-.05-.127-.152-.177-.099-.052-.254-.052-.113 0-.222.042-.106.039-.201.134l-.152-.187q.12-.12.272-.176.155-.057.32-.057.156 0 .286.039.13.035.226.123.099.089.148.237.053.148.053.374v.885h-.317v-.222q-.046.078-.106.13-.06.05-.13.078-.068.028-.142.039-.074.014-.144.014m1.915-.004q-.141 0-.268-.028-.123-.024-.233-.08-.11-.057-.204-.146l.151-.264.021-.032.022.014q.01.028.017.06.01.028.05.07.077.071.183.117t.265.046q.12 0 .2-.028.085-.028.128-.081.046-.053.046-.124 0-.05-.022-.084-.02-.04-.067-.071-.045-.032-.123-.064-.074-.035-.183-.067-.18-.052-.314-.12-.135-.07-.209-.165-.074-.096-.074-.219 0-.13.07-.226.071-.095.205-.148.138-.056.332-.056.11 0 .201.017.092.014.17.046.077.032.144.081.067.046.127.11l-.159.208-.024.028-.021-.021q-.004-.028-.015-.053-.01-.028-.052-.067-.078-.057-.173-.088-.096-.032-.19-.032-.131 0-.23.046-.095.046-.095.14 0 .054.035.1.039.045.134.091t.265.096q.2.056.32.123.124.067.177.155.056.088.056.208 0 .138-.074.254-.074.117-.222.187-.148.067-.367.067m1.909-.007q-.152 0-.25-.049-.1-.05-.16-.159-.056-.11-.077-.278-.018-.17-.01-.41l.042-1.157.31-.039.035-.003.004.025q-.018.024-.032.049-.01.025-.018.085l-.031.43.01.05-.024.57q-.011.255.014.396.024.138.084.19.064.053.16.053.112 0 .2-.045.092-.046.18-.113l.081.229q-.12.088-.25.134-.127.042-.268.042m-.815-1.65h1.185l-.003.246h-1.186zm2.466 1.657q-.173 0-.321-.052-.145-.057-.25-.163-.103-.106-.163-.264-.057-.16-.057-.36 0-.205.057-.364.06-.162.162-.268.102-.109.237-.165.137-.06.292-.06.138 0 .258.049.123.046.212.141.091.095.144.243.053.145.053.343 0 .031-.003.07 0 .036-.004.064h-1.118q.007.144.05.25.045.103.112.17.07.063.159.095.091.032.19.032.081 0 .152-.018.074-.018.138-.053.063-.039.116-.099l.162.159q-.07.081-.162.141-.088.057-.194.081-.102.028-.222.028m-.49-1.016h.814q0-.105-.028-.187-.028-.084-.078-.14-.049-.06-.12-.089-.07-.032-.158-.032-.081 0-.152.029-.067.024-.127.08-.056.054-.099.138-.039.085-.053.201m1.671-.642h.31l-.006.466-.035-.046q.017-.106.067-.19.053-.089.123-.145.074-.06.162-.092.089-.031.18-.031.13 0 .237.045.109.043.197.134l-.13.244-.014.032-.029-.014q-.007-.029-.02-.053-.011-.029-.057-.067-.053-.036-.103-.05t-.109-.014q-.088 0-.173.032-.081.032-.148.099t-.11.172q-.038.103-.038.244v.86h-.304zm1.814 2.24q-.113 0-.208-.038-.092-.036-.166-.106l.116-.205.018-.031.025.014q.01.028.024.049.018.021.067.053.029.01.06.014.036.007.07.007.089 0 .149-.042t.106-.134.092-.23l.32-.966q.054-.159.096-.31.046-.156.06-.315h.293q-.022.163-.078.332-.053.17-.113.332l-.402 1.128q-.085.247-.219.346-.134.103-.31.103m-.3-2.24h.307l.504 1.316-.144.35z"/>
  <path fill="#3b2f25" d="M2.247 3.002H1.171l.071-.356h.92zm-.516-1.21-.555 1.859H.682l.93-2.792h.24l.928 2.792h-.502Zm2.33 1.912q-.227 0-.418-.08t-.338-.222q-.142-.142-.222-.338-.076-.195-.076-.431 0-.231.076-.431.08-.2.222-.347.147-.147.338-.231.19-.089.418-.089.284 0 .493.107.213.106.338.293l-.276.302-.026.031-.036-.026q0-.036-.009-.071-.009-.036-.058-.094-.084-.08-.186-.106-.103-.031-.232-.031-.11 0-.208.048-.098.045-.178.134-.08.084-.125.213-.044.129-.044.298 0 .151.044.276.05.124.125.208.08.085.182.134.107.044.218.044.093 0 .182-.022.089-.027.173-.08.085-.058.16-.151l.276.32q-.164.178-.382.262-.214.08-.431.08m2.204 0q-.226 0-.418-.08-.19-.08-.337-.222-.143-.142-.223-.338-.075-.195-.075-.431 0-.231.075-.431.08-.2.223-.347.146-.147.337-.231.192-.089.418-.089.285 0 .494.107.213.106.338.293l-.276.302-.027.031-.035-.026q0-.036-.01-.071-.008-.036-.057-.094-.084-.08-.187-.106-.102-.031-.23-.031-.112 0-.21.048-.097.045-.178.134-.08.084-.124.213t-.044.298q0 .151.044.276.049.124.124.208.08.085.183.134.106.044.218.044.093 0 .182-.022.089-.027.173-.08.085-.058.16-.151l.276.32q-.165.178-.383.262-.213.08-.43.08M8.44 3.7q-.222 0-.409-.071-.187-.072-.324-.205-.138-.138-.218-.338-.076-.2-.076-.453 0-.262.076-.462.075-.205.204-.347.134-.142.311-.213.178-.076.378-.076.178 0 .338.062t.28.191q.12.125.191.316.071.187.071.436v.106q0 .062-.004.107h-1.36q.009.147.057.253.05.103.125.17.08.066.178.101.097.032.204.032.093 0 .178-.018t.16-.062q.08-.045.147-.116l.257.249q-.097.115-.217.195-.12.076-.258.107-.138.036-.29.036m-.533-1.325h.87q0-.107-.03-.191-.027-.084-.08-.142-.054-.062-.134-.09-.075-.03-.173-.03-.085 0-.165.026-.075.027-.137.085-.058.058-.098.142-.04.085-.053.2M10.59 3.7q-.186 0-.36-.036-.169-.03-.315-.102-.147-.071-.267-.187l.218-.409.022-.035.031.022q.013.031.027.071.013.036.066.085.112.093.25.146.142.054.333.054.124 0 .209-.032.089-.03.133-.08.049-.053.049-.12 0-.053-.027-.093-.026-.04-.084-.071t-.151-.067q-.09-.035-.218-.07-.222-.063-.391-.148-.165-.084-.254-.208-.089-.125-.089-.29 0-.173.098-.306.102-.133.28-.209.182-.08.427-.08.129 0 .244.022.12.018.223.058.102.036.19.098.09.058.17.138l-.245.337-.026.036-.032-.027q-.004-.035-.022-.066-.013-.031-.066-.08-.09-.067-.2-.098-.112-.031-.223-.031-.15 0-.262.049-.107.049-.107.146 0 .063.05.111.053.045.164.09.11.04.293.088.249.067.405.156.16.084.23.204.076.12.076.28 0 .174-.098.325-.097.15-.288.24-.187.089-.463.089m2.205 0q-.187 0-.36-.036-.169-.03-.316-.102-.146-.071-.266-.187l.217-.409.023-.035.03.022q.014.031.028.071.013.036.066.085.111.093.25.146.141.054.332.054.125 0 .21-.032.088-.03.133-.08.049-.053.049-.12 0-.053-.027-.093t-.084-.071-.152-.067q-.089-.035-.217-.07-.223-.063-.392-.148-.164-.084-.253-.208-.089-.125-.089-.29 0-.173.098-.306.102-.133.28-.209.182-.08.427-.08.129 0 .244.022.12.018.222.058.103.036.192.098.088.058.168.138l-.244.337-.027.036-.03-.027q-.005-.035-.023-.066-.013-.031-.067-.08-.089-.067-.2-.098-.11-.031-.222-.031-.151 0-.262.049-.107.049-.107.146 0 .063.049.111.053.045.164.09.112.04.294.088.249.067.404.156.16.084.231.204.076.12.076.28 0 .174-.098.325-.098.15-.289.24-.186.089-.462.089m1.436-.05v-.395h.502V1.98h-.48v-.396h.982v1.671h.458v.396zm.729-2.408q-.13 0-.223-.09-.088-.088-.088-.213 0-.133.084-.217.089-.085.227-.085.124 0 .218.093.097.09.097.21 0 .124-.097.213-.094.089-.218.089m2.329 2.462q-.107 0-.209-.03-.098-.032-.187-.094-.089-.067-.16-.156l-.08.227h-.378V.668h.543v.04q-.027.027-.036.058-.004.031-.004.107v.942q.049-.062.106-.116.058-.053.125-.088.071-.04.147-.058.08-.018.16-.018.186 0 .337.067.156.066.263.2.11.129.169.324.057.196.057.458 0 .285-.066.498-.067.209-.187.347t-.276.208q-.15.067-.324.067m-.098-.391q.093 0 .173-.036.085-.035.147-.115t.098-.213.036-.32q0-.17-.032-.303-.03-.133-.088-.226-.054-.094-.138-.138-.08-.05-.187-.05-.129 0-.222.085-.094.08-.147.236-.049.155-.049.373 0 .17.022.303.027.128.076.222.053.089.129.138.075.044.182.044m1.351.338v-.396h.578V1.064h-.55V.668h1.057v2.587h.569v.396zm3.125.049q-.222 0-.409-.071-.186-.072-.324-.205-.138-.138-.218-.338-.076-.2-.076-.453 0-.262.076-.462.076-.205.204-.347.134-.142.312-.213.177-.076.377-.076.178 0 .338.062t.28.191q.12.125.191.316.072.187.072.436v.106q0 .062-.005.107h-1.36q.009.147.058.253.049.103.124.17.08.066.178.101.098.032.205.032.093 0 .177-.018.085-.018.16-.062.08-.045.147-.116l.258.249q-.098.115-.218.195-.12.076-.258.107-.138.036-.289.036m-.533-1.325h.871q0-.107-.031-.191-.027-.084-.08-.142-.053-.062-.133-.09-.076-.03-.174-.03-.084 0-.164.026-.076.027-.138.085-.058.058-.098.142-.04.085-.053.2"/>
  <g transform="rotate(45 1.276 5.361)scale(1 .833)">
    <g transform="translate(.033 .185)">
      <circle cx="-1.583" cy="5.545" r="1.827" fill="#d4b86b" fill-opacity=".597" stroke="#c9a33a" stroke-miterlimit="13.7" stroke-width=".438" transform="matrix(.64 -.768 .64 .768 0 0)"/>
      <circle cx="-1.583" cy="5.545" r="1.68" fill="none" stroke="#a87e2b" stroke-miterlimit="13.7" stroke-width=".219" transform="matrix(.64 -.768 .64 .768 0 0)"/>
    </g>
    <g transform="translate(-.076 -.16)">
      <path fill="#3b3b3b" d="m2.646 4.233-.53 1.588.53 1.587.529-1.587z"/>
      <path fill="#c03b3b" d="M2.117 5.82h1.058l-.53-1.587z"/>
    </g>
    <circle cx="-1.677" cy="5.691" r=".292" fill="#f9e5b9" transform="matrix(.64 -.768 .64 .768 0 0)"/>
  </g>
  <path fill="#b88650" d="M0 7.937h23.283v.265H0z"/>
  <path fill="#b88650" d="M23.019 0h.265v8.202h-.265z"/>
  <path fill="#dab887" d="M0 0h23.283v.265H0z"/>
  <path fill="#dab887" d="M0 0h.265v8.202H0z"/>
</svg>
