<?xml version="1.0" encoding="UTF-8"?>
<!DOCTYPE svg PUBLIC "-//W3C//DTD SVG 1.1//EN" "http://www.w3.org/Graphics/SVG/1.1/DTD/svg11.dtd">
<svg xmlns="http://www.w3.org/2000/svg" version="1.1" width="283px" height="290px" style="shape-rendering:geometricPrecision; text-rendering:geometricPrecision; image-rendering:optimizeQuality; fill-rule:evenodd; clip-rule:evenodd" xmlns:xlink="http://www.w3.org/1999/xlink">
<g><path style="opacity:0.874" fill="#fdfcfc" d="M 127.5,-0.5 C 132.833,-0.5 138.167,-0.5 143.5,-0.5C 160.529,4.8634 168.029,16.5301 166,34.5C 184.239,37.5707 194.406,48.2374 196.5,66.5C 198.912,66.756 200.579,65.756 201.5,63.5C 197.784,57.3045 196.284,50.6378 197,43.5C 202.586,30.942 211.419,28.1086 223.5,35C 227.759,38.3584 230.926,42.5251 233,47.5C 238.076,38.7145 245.576,35.5478 255.5,38C 263.624,42.4194 266.79,49.2527 265,58.5C 263.052,65.0756 261.552,71.7423 260.5,78.5C 264.514,78.3345 268.514,78.5012 272.5,79C 276.74,81.7379 280.074,85.2379 282.5,89.5C 282.5,93.1667 282.5,96.8333 282.5,100.5C 280.074,104.762 276.74,108.262 272.5,111C 266.254,112.541 259.921,113.541 253.5,114C 258.669,123.518 259.503,133.351 256,143.5C 253.408,146.762 250.241,149.262 246.5,151C 263.74,167.784 269.574,187.951 264,211.5C 255.939,240.23 238.439,261.064 211.5,274C 193.36,282.782 174.36,287.949 154.5,289.5C 139.167,289.5 123.833,289.5 108.5,289.5C 78.7792,286.204 52.1125,275.37 28.5,257C 14.0372,244.395 4.37053,228.895 -0.5,210.5C -0.5,202.5 -0.5,194.5 -0.5,186.5C 6.72829,161.894 19.7283,140.727 38.5,123C 46.688,115.978 55.0213,109.144 63.5,102.5C 57.2031,94.4846 55.8697,85.6513 59.5,76C 47.5624,59.3492 49.5624,44.3492 65.5,31C 75.6076,24.7232 86.6076,22.0566 98.5,23C 104.81,10.8416 114.476,3.00828 127.5,-0.5 Z M 226.5,91.5 C 222.867,91.557 222.7,90.557 226,88.5C 226.483,89.448 226.649,90.448 226.5,91.5 Z M 175.5,97.5 C 180.467,98.6926 180.633,100.693 176,103.5C 175.505,101.527 175.338,99.5273 175.5,97.5 Z M 223.5,133.5 C 216.97,130.403 210.304,127.57 203.5,125C 209.95,123.219 216.116,124.052 222,127.5C 223.128,129.345 223.628,131.345 223.5,133.5 Z"/></g>
<g><path style="opacity:1" fill="#572032" d="M 188.5,73.5 C 184.513,73.0097 180.846,73.6764 177.5,75.5C 181.828,64.9739 178.828,57.4739 168.5,53C 157.392,50.4766 146.559,51.31 136,55.5C 132.836,55.2334 131.836,53.5667 133,50.5C 137,45.8333 141,41.1667 145,36.5C 148.849,31.2244 149.349,25.7244 146.5,20C 141.348,16.8631 136.015,16.0298 130.5,17.5C 115.954,22.2473 109.788,32.2473 112,47.5C 110.989,48.3366 109.822,48.67 108.5,48.5C 108.167,48.5 107.833,48.5 107.5,48.5C 103.166,42.7523 97.3326,40.0857 90,40.5C 81.5405,40.3964 74.8738,43.7297 70,50.5C 67.891,54.7809 68.0577,58.9476 70.5,63C 78.2954,67.8324 86.6288,70.9991 95.5,72.5C 95.5,73.5 95.5,74.5 95.5,75.5C 94.8333,75.5 94.1667,75.5 93.5,75.5C 88.0067,76.47 82.6733,77.97 77.5,80C 71.457,86.4825 72.7903,91.1491 81.5,94C 85.9938,96.4852 89.9938,95.9852 93.5,92.5C 98.2605,90.6209 102.927,88.4542 107.5,86C 115.812,82.632 120.312,85.4653 121,94.5C 129.713,101.693 139.379,107.36 150,111.5C 154.304,109.696 157.471,106.696 159.5,102.5C 155.893,95.6914 150.226,91.8581 142.5,91C 140.135,89.2105 138.468,87.0439 137.5,84.5C 145.507,84.6664 153.507,84.4997 161.5,84C 166.722,82.8779 171.388,80.7113 175.5,77.5C 173.984,81.3854 174.318,85.0521 176.5,88.5C 173.136,90.6825 169.47,92.0159 165.5,92.5C 170.331,101.18 168.998,108.846 161.5,115.5C 167.93,118.754 174.596,121.421 181.5,123.5C 183.011,124.502 184.678,125.169 186.5,125.5C 197.862,130.343 209.195,135.51 220.5,141C 260.709,164.329 268.876,196.163 245,236.5C 226.446,259.355 202.613,273.522 173.5,279C 147.88,283.18 122.213,283.513 96.5,280C 66.9269,274.968 42.0935,261.468 22,239.5C 5.34482,219.198 2.01149,196.865 12,172.5C 21.0907,154.068 33.2574,137.902 48.5,124C 57.6531,116.591 66.9864,109.424 76.5,102.5C 62.8765,94.8593 61.2099,85.3593 71.5,74C 58.8589,67.1213 56.0256,57.288 63,44.5C 73.5813,32.3068 86.7479,28.1401 102.5,32C 111.885,9.63706 127.885,2.63706 150.5,11C 160.13,19.9633 161.13,29.9633 153.5,41C 165.953,40.5571 176.453,44.7238 185,53.5C 189.051,59.6966 190.218,66.3633 188.5,73.5 Z"/></g>
<g><path style="opacity:1" fill="#954493" d="M 177.5,75.5 C 176.5,75.8333 175.833,76.5 175.5,77.5C 171.388,80.7113 166.722,82.8779 161.5,84C 153.507,84.4997 145.507,84.6664 137.5,84.5C 138.468,87.0439 140.135,89.2105 142.5,91C 150.226,91.8581 155.893,95.6914 159.5,102.5C 157.471,106.696 154.304,109.696 150,111.5C 139.379,107.36 129.713,101.693 121,94.5C 120.312,85.4653 115.812,82.632 107.5,86C 102.927,88.4542 98.2605,90.6209 93.5,92.5C 85.614,86.9722 85.614,81.3055 93.5,75.5C 94.1667,75.5 94.8333,75.5 95.5,75.5C 97.1401,74.6799 98.8068,73.8466 100.5,73C 96.5598,71.1135 93.0598,68.6135 90,65.5C 86.487,57.7243 88.6536,52.2243 96.5,49C 100.152,48.5014 103.818,48.3347 107.5,48.5C 107.833,48.5 108.167,48.5 108.5,48.5C 111.765,50.1538 115.098,51.8204 118.5,53.5C 118.833,52.8333 119.167,52.1667 119.5,51.5C 114.608,37.3069 118.274,25.9736 130.5,17.5C 136.015,16.0298 141.348,16.8631 146.5,20C 149.349,25.7244 148.849,31.2244 145,36.5C 141,41.1667 137,45.8333 133,50.5C 131.836,53.5667 132.836,55.2334 136,55.5C 146.559,51.31 157.392,50.4766 168.5,53C 178.828,57.4739 181.828,64.9739 177.5,75.5 Z"/></g>
<g><path style="opacity:1" fill="#722a78" d="M 130.5,17.5 C 118.274,25.9736 114.608,37.3069 119.5,51.5C 119.167,52.1667 118.833,52.8333 118.5,53.5C 115.098,51.8204 111.765,50.1538 108.5,48.5C 109.822,48.67 110.989,48.3366 112,47.5C 109.788,32.2473 115.954,22.2473 130.5,17.5 Z"/></g>
<g><path style="opacity:1" fill="#fe0730" d="M 176.5,88.5 C 174.318,85.0521 173.984,81.3854 175.5,77.5C 175.833,76.5 176.5,75.8333 177.5,75.5C 180.846,73.6764 184.513,73.0097 188.5,73.5C 207.125,76.0394 212.625,68.7061 205,51.5C 204.608,39.0771 209.941,36.0771 221,42.5C 228.84,54.7743 229.507,67.441 223,80.5C 209.419,94.6052 193.919,97.2718 176.5,88.5 Z"/></g>
<g><path style="opacity:1" fill="#722a79" d="M 107.5,48.5 C 103.818,48.3347 100.152,48.5014 96.5,49C 88.6536,52.2243 86.487,57.7243 90,65.5C 93.0598,68.6135 96.5598,71.1135 100.5,73C 98.8068,73.8466 97.1401,74.6799 95.5,75.5C 95.5,74.5 95.5,73.5 95.5,72.5C 86.6288,70.9991 78.2954,67.8324 70.5,63C 68.0577,58.9476 67.891,54.7809 70,50.5C 74.8738,43.7297 81.5405,40.3964 90,40.5C 97.3326,40.0857 103.166,42.7523 107.5,48.5 Z"/></g>
<g><path style="opacity:1" fill="#ff0c31" d="M 246.5,44.5 C 255.992,44.4441 259.492,49.1107 257,58.5C 254.292,67.3926 253.126,76.3926 253.5,85.5C 258.786,85.8629 264.12,86.0296 269.5,86C 274.155,88.8966 275.655,93.0633 274,98.5C 272.833,101 271,102.833 268.5,104C 261.153,105.957 253.819,105.957 246.5,104C 237.518,99.042 233.184,91.3754 233.5,81C 234.091,69.707 236.591,58.8737 241,48.5C 243.015,47.3034 244.849,45.9701 246.5,44.5 Z"/></g>
<g><path style="opacity:1" fill="#712978" d="M 93.5,75.5 C 85.614,81.3055 85.614,86.9722 93.5,92.5C 89.9938,95.9852 85.9938,96.4852 81.5,94C 72.7903,91.1491 71.457,86.4825 77.5,80C 82.6733,77.97 88.0067,76.47 93.5,75.5 Z"/></g>
<g><path style="opacity:1" fill="#e987ba" d="M 90.5,268.5 C 83.8584,262.863 77.1917,257.196 70.5,251.5C 83.6174,215.072 78.2841,181.738 54.5,151.5C 56.5,148.5 58.5,145.5 60.5,142.5C 63.5711,148.408 67.9044,153.241 73.5,157C 85.8862,166.197 99.2195,173.864 113.5,180C 117.274,181.183 120.441,180.349 123,177.5C 129.248,166.809 127.081,164.309 116.5,170C 115.5,170.667 114.5,170.667 113.5,170C 96.1135,160.314 79.1135,150.147 62.5,139.5C 69.3333,127.334 77.9999,116.668 88.5,107.5C 95.391,101.885 103.058,97.552 111.5,94.5C 111.841,97.5158 113.007,100.182 115,102.5C 118.566,105.699 122.4,108.533 126.5,111C 148.538,121.453 170.871,131.12 193.5,140C 182.573,149.382 171.74,158.882 161,168.5C 159.631,164.754 157.131,162.088 153.5,160.5C 150.782,166.832 152.615,171.832 159,175.5C 162.72,174.12 166.22,172.287 169.5,170C 178.667,162.167 187.833,154.333 197,146.5C 197.862,144.913 198.529,143.246 199,141.5C 203.371,143.269 207.538,145.436 211.5,148C 202.299,160.299 198.466,174.132 200,189.5C 202.126,210.391 209.626,229.057 222.5,245.5C 216.061,251.562 208.727,256.396 200.5,260C 190.33,264.877 179.663,268.21 168.5,270C 154.187,271.689 139.853,273.189 125.5,274.5C 113.724,273.011 102.058,271.011 90.5,268.5 Z"/></g>
<g><path style="opacity:1" fill="#ff0a31" d="M 186.5,125.5 C 184.678,125.169 183.011,124.502 181.5,123.5C 177.657,115.622 179.323,109.122 186.5,104C 196.263,97.7649 206.929,95.7649 218.5,98C 240.949,101.771 251.449,114.938 250,137.5C 247.025,143.192 242.525,144.858 236.5,142.5C 235.52,141.019 234.353,139.685 233,138.5C 232.178,132.897 230.511,127.564 228,122.5C 220.28,117.355 211.78,115.522 202.5,117C 199.268,118.23 196.601,120.23 194.5,123C 192.091,124.707 189.425,125.54 186.5,125.5 Z"/></g>
<g><path style="opacity:1" fill="#c952a1" d="M 88.5,107.5 C 77.9999,116.668 69.3333,127.334 62.5,139.5C 61.0937,139.973 60.427,140.973 60.5,142.5C 58.5,145.5 56.5,148.5 54.5,151.5C 51.2804,148.117 47.6138,145.284 43.5,143C 56.9575,129.023 71.9575,117.19 88.5,107.5 Z"/></g>
<g><path style="opacity:1" fill="#592032" d="M 62.5,139.5 C 79.1135,150.147 96.1135,160.314 113.5,170C 114.5,170.667 115.5,170.667 116.5,170C 127.081,164.309 129.248,166.809 123,177.5C 120.441,180.349 117.274,181.183 113.5,180C 99.2195,173.864 85.8862,166.197 73.5,157C 67.9044,153.241 63.5711,148.408 60.5,142.5C 60.427,140.973 61.0937,139.973 62.5,139.5 Z"/></g>
<g><path style="opacity:1" fill="#5a2133" d="M 124.5,144.5 C 127.785,144.269 130.285,145.603 132,148.5C 139.291,161.231 139.291,173.898 132,186.5C 130.274,187.576 128.441,187.743 126.5,187C 125.919,186.107 125.585,185.107 125.5,184C 128.282,178.151 129.949,171.985 130.5,165.5C 129.301,158.241 127.301,151.241 124.5,144.5 Z"/></g>
<g><path style="opacity:1" fill="#722a79" d="M 49.5,161.5 C 38.5878,186.646 40.7544,210.646 56,233.5C 57.7186,236.288 59.8852,238.621 62.5,240.5C 60.7072,245.419 58.3739,250.086 55.5,254.5C 9.64421,225.604 4.14421,190.271 39,148.5C 42.9881,152.498 46.4881,156.831 49.5,161.5 Z"/></g>
<g><path style="opacity:1" fill="#954493" d="M 218.5,151.5 C 245.751,165.746 254.251,187.413 244,216.5C 241.05,226.111 235.717,234.111 228,240.5C 214.742,219.049 209.075,195.715 211,170.5C 212.427,163.713 214.927,157.38 218.5,151.5 Z"/></g>
<g><path style="opacity:1" fill="#954493" d="M 49.5,161.5 C 62.934,180.673 68.1006,202.006 65,225.5C 64.3572,230.545 63.5238,235.545 62.5,240.5C 59.8852,238.621 57.7186,236.288 56,233.5C 40.7544,210.646 38.5878,186.646 49.5,161.5 Z"/></g>
<g><path style="opacity:1" fill="#572031" d="M 171.5,173.5 C 180.994,172.159 184.827,176.159 183,185.5C 178.076,190.756 173.076,190.756 168,185.5C 166.593,180.643 167.76,176.643 171.5,173.5 Z"/></g>
<g><path style="opacity:1" fill="#592133" d="M 100.5,177.5 C 109.583,177.407 113.416,181.74 112,190.5C 105.922,197.285 100.255,196.952 95,189.5C 94.3333,187.833 94.3333,186.167 95,184.5C 96.6665,182.004 98.4998,179.671 100.5,177.5 Z"/></g>
<g><path style="opacity:1" fill="#c951a0" d="M 70.5,251.5 C 77.1917,257.196 83.8584,262.863 90.5,268.5C 81.8108,266.492 73.4774,263.492 65.5,259.5C 67.1916,256.769 68.8583,254.102 70.5,251.5 Z"/></g>
</svg>
