<?xml version="1.0" encoding="UTF-8"?>
<!DOCTYPE svg PUBLIC "-//W3C//DTD SVG 1.1//EN" "http://www.w3.org/Graphics/SVG/1.1/DTD/svg11.dtd">
<svg xmlns="http://www.w3.org/2000/svg" version="1.1" width="267px" height="290px" style="shape-rendering:geometricPrecision; text-rendering:geometricPrecision; image-rendering:optimizeQuality; fill-rule:evenodd; clip-rule:evenodd" xmlns:xlink="http://www.w3.org/1999/xlink">
<g><path style="opacity:0.862" fill="#fdfcfc" d="M 127.5,-0.5 C 132.833,-0.5 138.167,-0.5 143.5,-0.5C 160.529,4.8634 168.029,16.5301 166,34.5C 191.085,40.2504 200.418,55.5837 194,80.5C 189.616,87.8843 183.616,93.551 176,97.5C 175.912,102.65 175.079,107.65 173.5,112.5C 181.714,116.286 190.048,119.453 198.5,122C 191.386,110.484 193.719,101.317 205.5,94.5C 202.897,86.5998 203.231,78.7665 206.5,71C 195.612,61.3881 195.945,52.0547 207.5,43C 220.167,35.6667 232.833,35.6667 245.5,43C 254.353,52.349 255.853,62.849 250,74.5C 244.769,81.708 237.936,86.8747 229.5,90C 228.23,93.2032 226.23,95.8699 223.5,98C 230.011,104.251 231.177,111.418 227,119.5C 222.162,125.116 215.996,127.616 208.5,127C 231.251,135.275 248.751,149.775 261,170.5C 263.372,177.141 265.206,183.807 266.5,190.5C 266.5,193.833 266.5,197.167 266.5,200.5C 262.868,224.924 251.535,245.09 232.5,261C 209.093,277.745 183.093,287.245 154.5,289.5C 139.167,289.5 123.833,289.5 108.5,289.5C 78.7792,286.204 52.1125,275.37 28.5,257C 14.0372,244.395 4.37053,228.895 -0.5,210.5C -0.5,202.5 -0.5,194.5 -0.5,186.5C 6.72829,161.894 19.7283,140.727 38.5,123C 46.688,115.978 55.0213,109.144 63.5,102.5C 57.2031,94.4846 55.8697,85.6513 59.5,76C 47.5624,59.3492 49.5624,44.3492 65.5,31C 75.6076,24.7232 86.6076,22.0566 98.5,23C 104.81,10.8416 114.476,3.00828 127.5,-0.5 Z"/></g>
<g><path style="opacity:1" fill="#572032" d="M 130.5,6.5 C 142.809,5.23673 151.975,9.9034 158,20.5C 159.193,27.9219 157.693,34.7552 153.5,41C 165.953,40.5571 176.453,44.7238 185,53.5C 193.462,73.9089 186.962,86.9089 165.5,92.5C 170.331,101.18 168.998,108.846 161.5,115.5C 174.678,121.284 188.012,126.784 201.5,132C 217.909,138.28 232.409,147.447 245,159.5C 259.694,178.146 262.36,198.48 253,220.5C 243.249,241.918 227.749,257.751 206.5,268C 182.514,278.693 157.347,283.527 131,282.5C 99.4192,283.414 70.2525,275.58 43.5,259C 24.6609,246.505 12.4943,229.338 7,207.5C 5.15237,191.37 8.4857,176.37 17,162.5C 32.3103,138.023 52.1437,118.023 76.5,102.5C 62.8765,94.8593 61.2099,85.3593 71.5,74C 58.8589,67.1213 56.0256,57.288 63,44.5C 73.5813,32.3068 86.7479,28.1401 102.5,32C 107.288,18.3738 116.621,9.87383 130.5,6.5 Z"/></g>
<g><path style="opacity:1" fill="#954493" d="M 93.5,92.5 C 85.614,86.9722 85.614,81.3055 93.5,75.5C 94.1667,75.5 94.8333,75.5 95.5,75.5C 97.1401,74.6799 98.8068,73.8466 100.5,73C 96.5598,71.1135 93.0598,68.6135 90,65.5C 86.487,57.7243 88.6536,52.2243 96.5,49C 100.152,48.5014 103.818,48.3347 107.5,48.5C 107.833,48.5 108.167,48.5 108.5,48.5C 111.765,50.1538 115.098,51.8204 118.5,53.5C 118.833,52.8333 119.167,52.1667 119.5,51.5C 114.608,37.3069 118.274,25.9736 130.5,17.5C 136.292,15.9792 141.792,16.9792 147,20.5C 149.292,26.1611 148.626,31.4944 145,36.5C 141,41.1667 137,45.8333 133,50.5C 131.836,53.5667 132.836,55.2334 136,55.5C 146.559,51.31 157.392,50.4766 168.5,53C 179.012,57.5319 181.846,65.0319 177,75.5C 172.894,80.2072 167.727,83.0405 161.5,84C 153.507,84.4997 145.507,84.6664 137.5,84.5C 138.468,87.0439 140.135,89.2105 142.5,91C 150.226,91.8581 155.893,95.6914 159.5,102.5C 157.471,106.696 154.304,109.696 150,111.5C 139.379,107.36 129.713,101.693 121,94.5C 120.312,85.4653 115.812,82.632 107.5,86C 102.927,88.4542 98.2605,90.6209 93.5,92.5 Z"/></g>
<g><path style="opacity:1" fill="#722a78" d="M 130.5,17.5 C 118.274,25.9736 114.608,37.3069 119.5,51.5C 119.167,52.1667 118.833,52.8333 118.5,53.5C 115.098,51.8204 111.765,50.1538 108.5,48.5C 109.822,48.67 110.989,48.3366 112,47.5C 109.788,32.2473 115.954,22.2473 130.5,17.5 Z"/></g>
<g><path style="opacity:1" fill="#722a79" d="M 107.5,48.5 C 103.818,48.3347 100.152,48.5014 96.5,49C 88.6536,52.2243 86.487,57.7243 90,65.5C 93.0598,68.6135 96.5598,71.1135 100.5,73C 98.8068,73.8466 97.1401,74.6799 95.5,75.5C 95.5,74.5 95.5,73.5 95.5,72.5C 86.6288,70.9991 78.2954,67.8324 70.5,63C 67.2363,51.5581 71.5697,44.2248 83.5,41C 93.1862,38.6199 101.186,41.1199 107.5,48.5 Z"/></g>
<g><path style="opacity:1" fill="#592434" d="M 221.5,44.5 C 230.364,43.5833 237.864,46.25 244,52.5C 248.122,62.8293 245.622,71.3293 236.5,78C 232.371,80.3207 228.037,82.154 223.5,83.5C 222.852,88.1705 220.352,91.1705 216,92.5C 213.09,91.2555 211.256,89.0888 210.5,86C 210.961,82.3915 211.795,78.8915 213,75.5C 213.903,74.2986 215.069,73.4652 216.5,73C 223.601,72.699 229.434,69.8657 234,64.5C 235.507,58.1718 233.007,55.5051 226.5,56.5C 224.5,56.6667 222.5,56.8333 220.5,57C 217.27,59.0726 213.937,60.906 210.5,62.5C 206.746,61.1484 205.579,58.4817 207,54.5C 210.633,49.3576 215.466,46.0243 221.5,44.5 Z"/></g>
<g><path style="opacity:1" fill="#712978" d="M 93.5,75.5 C 85.614,81.3055 85.614,86.9722 93.5,92.5C 89.9938,95.9852 85.9938,96.4852 81.5,94C 72.7903,91.1491 71.457,86.4825 77.5,80C 82.6733,77.97 88.0067,76.47 93.5,75.5 Z"/></g>
<g><path style="opacity:1" fill="#e987ba" d="M 90.5,268.5 C 83.8584,262.863 77.1917,257.196 70.5,251.5C 83.6174,215.072 78.2841,181.738 54.5,151.5C 63.909,135.35 75.2423,120.683 88.5,107.5C 95.391,101.885 103.058,97.552 111.5,94.5C 111.841,97.5158 113.007,100.182 115,102.5C 118.566,105.699 122.4,108.533 126.5,111C 154.747,123.626 183.08,135.959 211.5,148C 202.299,160.299 198.466,174.132 200,189.5C 202.126,210.391 209.626,229.057 222.5,245.5C 216.061,251.562 208.727,256.396 200.5,260C 190.33,264.877 179.663,268.21 168.5,270C 154.187,271.689 139.853,273.189 125.5,274.5C 113.724,273.011 102.058,271.011 90.5,268.5 Z"/></g>
<g><path style="opacity:1" fill="#5a2434" d="M 208.5,101.5 C 215.879,100.512 220.546,103.512 222.5,110.5C 220.167,117.899 215.167,120.732 207.5,119C 202.879,116.923 201.045,113.423 202,108.5C 203.694,105.642 205.861,103.309 208.5,101.5 Z"/></g>
<g><path style="opacity:1" fill="#ca52a1" d="M 88.5,107.5 C 75.2423,120.683 63.909,135.35 54.5,151.5C 51.2804,148.117 47.6138,145.284 43.5,143C 56.9575,129.023 71.9575,117.19 88.5,107.5 Z"/></g>
<g><path style="opacity:1" fill="#722a79" d="M 49.5,161.5 C 38.5878,186.646 40.7544,210.646 56,233.5C 57.7186,236.288 59.8852,238.621 62.5,240.5C 60.7072,245.419 58.3739,250.086 55.5,254.5C 9.64421,225.604 4.14421,190.271 39,148.5C 42.9881,152.498 46.4881,156.831 49.5,161.5 Z"/></g>
<g><path style="opacity:1" fill="#954493" d="M 218.5,151.5 C 245.751,165.746 254.251,187.413 244,216.5C 241.05,226.111 235.717,234.111 228,240.5C 214.742,219.049 209.075,195.715 211,170.5C 212.427,163.713 214.927,157.38 218.5,151.5 Z"/></g>
<g><path style="opacity:1" fill="#592133" d="M 87.5,153.5 C 96.5298,153.358 100.363,157.692 99,166.5C 92.9216,173.285 87.2549,172.952 82,165.5C 81.3333,163.833 81.3333,162.167 82,160.5C 83.6665,158.004 85.4998,155.671 87.5,153.5 Z"/></g>
<g><path style="opacity:1" fill="#954493" d="M 49.5,161.5 C 62.934,180.673 68.1006,202.006 65,225.5C 64.3572,230.545 63.5238,235.545 62.5,240.5C 59.8852,238.621 57.7186,236.288 56,233.5C 40.7544,210.646 38.5878,186.646 49.5,161.5 Z"/></g>
<g><path style="opacity:1" fill="#572031" d="M 171.5,194.5 C 180.994,193.159 184.827,197.159 183,206.5C 178.076,211.756 173.076,211.756 168,206.5C 166.593,201.643 167.76,197.643 171.5,194.5 Z"/></g>
<g><path style="opacity:1" fill="#c951a0" d="M 70.5,251.5 C 77.1917,257.196 83.8584,262.863 90.5,268.5C 81.8108,266.492 73.4774,263.492 65.5,259.5C 67.1916,256.769 68.8583,254.102 70.5,251.5 Z"/></g>
</svg>
