<?xml version="1.0" encoding="UTF-8"?>
<!DOCTYPE svg PUBLIC "-//W3C//DTD SVG 1.1//EN" "http://www.w3.org/Graphics/SVG/1.1/DTD/svg11.dtd">
<svg xmlns="http://www.w3.org/2000/svg" version="1.1" width="277px" height="290px" style="shape-rendering:geometricPrecision; text-rendering:geometricPrecision; image-rendering:optimizeQuality; fill-rule:evenodd; clip-rule:evenodd" xmlns:xlink="http://www.w3.org/1999/xlink">
<g><path style="opacity:0.864" fill="#fdfcfc" d="M 127.5,-0.5 C 132.833,-0.5 138.167,-0.5 143.5,-0.5C 160.529,4.8634 168.029,16.5301 166,34.5C 178.677,36.6829 188.177,43.3496 194.5,54.5C 204.702,44.9306 216.869,40.5973 231,41.5C 255.861,41.5512 271.028,53.5512 276.5,77.5C 276.5,80.5 276.5,83.5 276.5,86.5C 275.175,92.8 272.008,98.1333 267,102.5C 265.456,110.09 261.956,116.59 256.5,122C 252.042,124.518 247.376,125.018 242.5,123.5C 234.265,129.294 226.599,128.627 219.5,121.5C 209.991,124.904 202.825,122.237 198,113.5C 197.667,109.167 197.333,104.833 197,100.5C 193.273,97.2759 190.106,93.6092 187.5,89.5C 184.278,93.0293 180.444,95.6959 176,97.5C 175.912,102.65 175.079,107.65 173.5,112.5C 190.445,118.983 207.111,126.149 223.5,134C 266.759,158.187 276.926,192.354 254,236.5C 235.143,262.981 209.643,279.481 177.5,286C 169.696,287.233 162.029,288.399 154.5,289.5C 139.167,289.5 123.833,289.5 108.5,289.5C 78.7792,286.204 52.1125,275.37 28.5,257C 14.0372,244.395 4.37053,228.895 -0.5,210.5C -0.5,202.5 -0.5,194.5 -0.5,186.5C 6.72829,161.894 19.7283,140.727 38.5,123C 46.688,115.978 55.0213,109.144 63.5,102.5C 57.2031,94.4846 55.8697,85.6513 59.5,76C 47.5624,59.3492 49.5624,44.3492 65.5,31C 75.6076,24.7232 86.6076,22.0566 98.5,23C 104.81,10.8416 114.476,3.00828 127.5,-0.5 Z"/></g>
<g><path style="opacity:1" fill="#572032" d="M 130.5,6.5 C 142.827,5.2459 151.994,9.91257 158,20.5C 159.193,27.9219 157.693,34.7552 153.5,41C 165.953,40.5571 176.453,44.7238 185,53.5C 193.462,73.9089 186.962,86.9089 165.5,92.5C 170.331,101.18 168.998,108.846 161.5,115.5C 174.678,121.284 188.012,126.784 201.5,132C 217.909,138.28 232.409,147.447 245,159.5C 259.694,178.146 262.36,198.48 253,220.5C 243.249,241.918 227.749,257.751 206.5,268C 182.514,278.693 157.347,283.527 131,282.5C 99.4192,283.414 70.2525,275.58 43.5,259C 24.6609,246.505 12.4943,229.338 7,207.5C 5.15237,191.37 8.4857,176.37 17,162.5C 32.3103,138.023 52.1437,118.023 76.5,102.5C 62.8765,94.8593 61.2099,85.3593 71.5,74C 58.8589,67.1213 56.0256,57.288 63,44.5C 73.5813,32.3068 86.7479,28.1401 102.5,32C 107.288,18.3738 116.621,9.87383 130.5,6.5 Z"/></g>
<g><path style="opacity:1" fill="#954493" d="M 93.5,92.5 C 85.614,86.9722 85.614,81.3055 93.5,75.5C 94.1667,75.5 94.8333,75.5 95.5,75.5C 97.1401,74.6799 98.8068,73.8466 100.5,73C 96.5598,71.1135 93.0598,68.6135 90,65.5C 86.487,57.7243 88.6536,52.2243 96.5,49C 100.152,48.5014 103.818,48.3347 107.5,48.5C 107.833,48.5 108.167,48.5 108.5,48.5C 111.765,50.1538 115.098,51.8204 118.5,53.5C 118.833,52.8333 119.167,52.1667 119.5,51.5C 114.608,37.3069 118.274,25.9736 130.5,17.5C 136.292,15.9792 141.792,16.9792 147,20.5C 149.292,26.1611 148.626,31.4944 145,36.5C 141,41.1667 137,45.8333 133,50.5C 131.836,53.5667 132.836,55.2334 136,55.5C 146.559,51.31 157.392,50.4766 168.5,53C 179.012,57.5319 181.846,65.0319 177,75.5C 172.894,80.2072 167.727,83.0405 161.5,84C 153.507,84.4997 145.507,84.6664 137.5,84.5C 138.468,87.0439 140.135,89.2105 142.5,91C 150.226,91.8581 155.893,95.6914 159.5,102.5C 157.471,106.696 154.304,109.696 150,111.5C 139.379,107.36 129.713,101.693 121,94.5C 120.312,85.4653 115.812,82.632 107.5,86C 102.927,88.4542 98.2605,90.6209 93.5,92.5 Z"/></g>
<g><path style="opacity:1" fill="#722a78" d="M 130.5,17.5 C 118.274,25.9736 114.608,37.3069 119.5,51.5C 119.167,52.1667 118.833,52.8333 118.5,53.5C 115.098,51.8204 111.765,50.1538 108.5,48.5C 109.822,48.67 110.989,48.3366 112,47.5C 109.788,32.2473 115.954,22.2473 130.5,17.5 Z"/></g>
<g><path style="opacity:1" fill="#722a79" d="M 107.5,48.5 C 103.818,48.3347 100.152,48.5014 96.5,49C 88.6536,52.2243 86.487,57.7243 90,65.5C 93.0598,68.6135 96.5598,71.1135 100.5,73C 98.8068,73.8466 97.1401,74.6799 95.5,75.5C 95.5,74.5 95.5,73.5 95.5,72.5C 86.6288,70.9991 78.2954,67.8324 70.5,63C 67.2363,51.5581 71.5697,44.2248 83.5,41C 93.1862,38.6199 101.186,41.1199 107.5,48.5 Z"/></g>
<g><path style="opacity:1" fill="#572131" d="M 220.5,49.5 C 235.013,46.9562 248.013,50.1228 259.5,59C 269.138,69.6228 270.971,81.4561 265,94.5C 263.185,96.4049 261.185,98.0716 259,99.5C 258.798,106.129 256.298,111.629 251.5,116C 246.375,117.569 242.541,116.069 240,111.5C 237.984,118.925 233.484,121.092 226.5,118C 224.242,115.415 222.409,112.582 221,109.5C 217.086,116.096 212.086,117.096 206,112.5C 203.891,107.559 204.058,102.725 206.5,98C 192.504,89.5166 189.337,78.0166 197,63.5C 203.041,55.5726 210.874,50.9059 220.5,49.5 Z"/></g>
<g><path style="opacity:1" fill="#f9f8f8" d="M 202.5,70.5 C 209.831,70.9522 217.165,71.4522 224.5,72C 228.436,75.1589 228.436,78.4922 224.5,82C 217.086,82.8903 209.753,82.557 202.5,81C 199.713,78.8328 198.88,75.9994 200,72.5C 200.995,71.9341 201.828,71.2674 202.5,70.5 Z"/></g>
<g><path style="opacity:1" fill="#faf8f9" d="M 239.5,71.5 C 246.555,71.2703 253.555,71.7703 260.5,73C 265.389,79.1014 263.889,82.6014 256,83.5C 250.176,82.8981 244.342,82.3981 238.5,82C 235.685,78.1898 236.019,74.6898 239.5,71.5 Z"/></g>
<g><path style="opacity:1" fill="#712978" d="M 93.5,75.5 C 85.614,81.3055 85.614,86.9722 93.5,92.5C 89.9938,95.9852 85.9938,96.4852 81.5,94C 72.7903,91.1491 71.457,86.4825 77.5,80C 82.6733,77.97 88.0067,76.47 93.5,75.5 Z"/></g>
<g><path style="opacity:1" fill="#f5f1f2" d="M 226.5,85.5 C 236.191,84.4277 239.191,88.261 235.5,97C 227.884,100.03 224.05,97.53 224,89.5C 224.662,88.0161 225.496,86.6828 226.5,85.5 Z"/></g>
<g><path style="opacity:1" fill="#e987ba" d="M 90.5,268.5 C 83.8584,262.863 77.1917,257.196 70.5,251.5C 83.6174,215.072 78.2841,181.738 54.5,151.5C 63.909,135.35 75.2423,120.683 88.5,107.5C 95.391,101.885 103.058,97.552 111.5,94.5C 111.841,97.5158 113.007,100.182 115,102.5C 118.566,105.699 122.4,108.533 126.5,111C 154.747,123.626 183.08,135.959 211.5,148C 202.299,160.299 198.466,174.132 200,189.5C 202.126,210.391 209.626,229.057 222.5,245.5C 216.061,251.562 208.727,256.396 200.5,260C 190.33,264.877 179.663,268.21 168.5,270C 154.187,271.689 139.853,273.189 125.5,274.5C 113.724,273.011 102.058,271.011 90.5,268.5 Z"/></g>
<g><path style="opacity:1" fill="#ca52a1" d="M 88.5,107.5 C 75.2423,120.683 63.909,135.35 54.5,151.5C 51.2804,148.117 47.6138,145.284 43.5,143C 56.9575,129.023 71.9575,117.19 88.5,107.5 Z"/></g>
<g><path style="opacity:1" fill="#582032" d="M 178.5,145.5 C 185.03,145.243 187.197,148.243 185,154.5C 181.708,159.583 178.541,164.75 175.5,170C 180.319,175.786 185.486,181.286 191,186.5C 193.922,193.917 191.422,196.75 183.5,195C 178.957,190.625 174.624,186.125 170.5,181.5C 168.238,186.449 166.072,191.449 164,196.5C 158.565,200.008 155.398,198.508 154.5,192C 156.269,185.461 158.603,179.128 161.5,173C 157.365,168.535 152.865,164.368 148,160.5C 145.588,154.24 147.755,151.407 154.5,152C 158.931,154.596 162.931,157.762 166.5,161.5C 170.171,155.841 174.171,150.508 178.5,145.5 Z"/></g>
<g><path style="opacity:1" fill="#722a79" d="M 49.5,161.5 C 38.5878,186.646 40.7544,210.646 56,233.5C 57.7186,236.288 59.8852,238.621 62.5,240.5C 60.7072,245.419 58.3739,250.086 55.5,254.5C 9.64421,225.604 4.14421,190.271 39,148.5C 42.9881,152.498 46.4881,156.831 49.5,161.5 Z"/></g>
<g><path style="opacity:1" fill="#954493" d="M 218.5,151.5 C 245.751,165.746 254.251,187.413 244,216.5C 241.05,226.111 235.717,234.111 228,240.5C 214.742,219.049 209.075,195.715 211,170.5C 212.427,163.713 214.927,157.38 218.5,151.5 Z"/></g>
<g><path style="opacity:1" fill="#582032" d="M 120.5,155.5 C 126.326,155.157 128.826,157.824 128,163.5C 123.36,170.307 118.527,176.973 113.5,183.5C 120.425,188.92 126.925,194.92 133,201.5C 133.626,208.947 130.46,211.113 123.5,208C 118.593,202.422 113.093,197.589 107,193.5C 104.139,197.888 101.806,202.554 100,207.5C 96.9324,211.388 93.9324,211.388 91,207.5C 90.3333,204.833 90.3333,202.167 91,199.5C 93.1511,195.198 95.3178,190.864 97.5,186.5C 92.5414,182.043 87.708,177.376 83,172.5C 80.5891,165.575 83.0891,163.075 90.5,165C 95,168.833 99.5,172.667 104,176.5C 109.714,169.625 115.214,162.625 120.5,155.5 Z"/></g>
<g><path style="opacity:1" fill="#954493" d="M 49.5,161.5 C 62.934,180.673 68.1006,202.006 65,225.5C 64.3572,230.545 63.5238,235.545 62.5,240.5C 59.8852,238.621 57.7186,236.288 56,233.5C 40.7544,210.646 38.5878,186.646 49.5,161.5 Z"/></g>
<g><path style="opacity:1" fill="#c951a0" d="M 70.5,251.5 C 77.1917,257.196 83.8584,262.863 90.5,268.5C 81.8108,266.492 73.4774,263.492 65.5,259.5C 67.1916,256.769 68.8583,254.102 70.5,251.5 Z"/></g>
</svg>
