<?xml version="1.0" encoding="UTF-8"?>
<!DOCTYPE svg PUBLIC "-//W3C//DTD SVG 1.1//EN" "http://www.w3.org/Graphics/SVG/1.1/DTD/svg11.dtd">
<svg xmlns="http://www.w3.org/2000/svg" version="1.1" width="281px" height="290px" style="shape-rendering:geometricPrecision; text-rendering:geometricPrecision; image-rendering:optimizeQuality; fill-rule:evenodd; clip-rule:evenodd" xmlns:xlink="http://www.w3.org/1999/xlink">
<g><path style="opacity:0.861" fill="#fdfcfc" d="M 131.5,-0.5 C 136.833,-0.5 142.167,-0.5 147.5,-0.5C 164.529,4.8634 172.029,16.5301 170,34.5C 195.085,40.2504 204.418,55.5837 198,80.5C 193.616,87.8843 187.616,93.551 180,97.5C 179.912,102.65 179.079,107.65 177.5,112.5C 190.117,117.762 202.783,122.929 215.5,128C 235.248,136.089 251.081,148.922 263,166.5C 270.149,180.907 271.816,195.907 268,211.5C 260.039,238.261 243.872,258.427 219.5,272C 200.254,282.057 179.92,287.891 158.5,289.5C 143.167,289.5 127.833,289.5 112.5,289.5C 86.8645,286.676 63.1978,278.176 41.5,264C 24.0194,251.85 11.8527,235.683 5,215.5C 3.47447,205.885 3.14114,196.219 4,186.5C 5.03945,180.715 6.87278,175.215 9.5,170C 4.73216,165.285 1.39883,159.785 -0.5,153.5C -0.5,147.5 -0.5,141.5 -0.5,135.5C 7.02436,114.329 20.0244,97.1621 38.5,84C 42.4525,83.0885 46.1191,83.7552 49.5,86C 54.8916,91.4572 59.5583,97.4572 63.5,104C 65.0758,104.388 66.4091,103.888 67.5,102.5C 61.2031,94.4846 59.8697,85.6513 63.5,76C 51.5624,59.3492 53.5624,44.3492 69.5,31C 79.6076,24.7232 90.6076,22.0566 102.5,23C 108.81,10.8416 118.476,3.00828 131.5,-0.5 Z"/></g>
<g><path style="opacity:1" fill="#572032" d="M 134.5,6.5 C 146.827,5.2459 155.994,9.91257 162,20.5C 163.193,27.9219 161.693,34.7552 157.5,41C 169.953,40.5571 180.453,44.7238 189,53.5C 197.462,73.9089 190.962,86.9089 169.5,92.5C 174.331,101.18 172.998,108.846 165.5,115.5C 178.678,121.284 192.012,126.784 205.5,132C 221.909,138.28 236.409,147.447 249,159.5C 263.694,178.146 266.36,198.48 257,220.5C 247.249,241.918 231.749,257.751 210.5,268C 186.514,278.693 161.347,283.527 135,282.5C 103.419,283.414 74.2525,275.58 47.5,259C 28.6609,246.505 16.4943,229.338 11,207.5C 9.13686,193.483 11.6369,180.317 18.5,168C 7.76493,159.127 4.26493,147.96 8,134.5C 15.0009,117.819 25.5009,103.653 39.5,92C 43.6717,91.1316 46.8383,92.6316 49,96.5C 53.8313,102.826 58.1646,109.492 62,116.5C 68.0248,111.641 74.1915,106.975 80.5,102.5C 66.8765,94.8593 65.2099,85.3593 75.5,74C 62.8589,67.1213 60.0256,57.288 67,44.5C 77.5813,32.3068 90.7479,28.1401 106.5,32C 111.288,18.3738 120.621,9.87383 134.5,6.5 Z"/></g>
<g><path style="opacity:1" fill="#954493" d="M 97.5,92.5 C 89.614,86.9722 89.614,81.3055 97.5,75.5C 98.1667,75.5 98.8333,75.5 99.5,75.5C 101.14,74.6799 102.807,73.8466 104.5,73C 100.56,71.1135 97.0598,68.6135 94,65.5C 90.487,57.7243 92.6536,52.2243 100.5,49C 104.152,48.5014 107.818,48.3347 111.5,48.5C 111.833,48.5 112.167,48.5 112.5,48.5C 115.765,50.1538 119.098,51.8204 122.5,53.5C 122.833,52.8333 123.167,52.1667 123.5,51.5C 118.608,37.3069 122.274,25.9736 134.5,17.5C 140.292,15.9792 145.792,16.9792 151,20.5C 153.292,26.1611 152.626,31.4944 149,36.5C 145,41.1667 141,45.8333 137,50.5C 135.836,53.5667 136.836,55.2334 140,55.5C 150.559,51.31 161.392,50.4766 172.5,53C 183.012,57.5319 185.846,65.0319 181,75.5C 176.894,80.2072 171.727,83.0405 165.5,84C 157.507,84.4997 149.507,84.6664 141.5,84.5C 142.468,87.0439 144.135,89.2105 146.5,91C 154.226,91.8581 159.893,95.6914 163.5,102.5C 161.471,106.696 158.304,109.696 154,111.5C 143.379,107.36 133.713,101.693 125,94.5C 124.312,85.4653 119.812,82.632 111.5,86C 106.927,88.4542 102.261,90.6209 97.5,92.5 Z"/></g>
<g><path style="opacity:1" fill="#722a78" d="M 134.5,17.5 C 122.274,25.9736 118.608,37.3069 123.5,51.5C 123.167,52.1667 122.833,52.8333 122.5,53.5C 119.098,51.8204 115.765,50.1538 112.5,48.5C 113.822,48.67 114.989,48.3366 116,47.5C 113.788,32.2473 119.954,22.2473 134.5,17.5 Z"/></g>
<g><path style="opacity:1" fill="#722a79" d="M 111.5,48.5 C 107.818,48.3347 104.152,48.5014 100.5,49C 92.6536,52.2243 90.487,57.7243 94,65.5C 97.0598,68.6135 100.56,71.1135 104.5,73C 102.807,73.8466 101.14,74.6799 99.5,75.5C 99.5,74.5 99.5,73.5 99.5,72.5C 90.6288,70.9991 82.2954,67.8324 74.5,63C 71.2363,51.5581 75.5697,44.2248 87.5,41C 97.1862,38.6199 105.186,41.1199 111.5,48.5 Z"/></g>
<g><path style="opacity:0.922" fill="#fefffe" d="M 235.5,72.5 C 243.429,72.9288 248.596,76.9288 251,84.5C 253.08,98.1754 247.913,108.009 235.5,114C 231.404,116.259 227.071,117.259 222.5,117C 217.605,114.177 217.271,110.843 221.5,107C 228.659,105.015 234.492,101.182 239,95.5C 241.482,90.8554 240.815,86.8554 237,83.5C 222.944,89.2598 214.277,99.5932 211,114.5C 209.236,116.661 207.403,116.828 205.5,115C 204.833,113.333 204.167,111.667 203.5,110C 206.932,91.0853 217.599,78.5853 235.5,72.5 Z"/></g>
<g><path style="opacity:1" fill="#712978" d="M 97.5,75.5 C 89.614,81.3055 89.614,86.9722 97.5,92.5C 93.9938,95.9852 89.9938,96.4852 85.5,94C 76.7903,91.1491 75.457,86.4825 81.5,80C 86.6733,77.97 92.0067,76.47 97.5,75.5 Z"/></g>
<g><path style="opacity:1" fill="#e987ba" d="M 94.5,268.5 C 87.8584,262.863 81.1917,257.196 74.5,251.5C 86.2018,219.679 83.2018,189.345 65.5,160.5C 70.3597,152.378 71.693,143.712 69.5,134.5C 76.1008,124.568 83.7674,115.568 92.5,107.5C 99.391,101.885 107.058,97.552 115.5,94.5C 115.841,97.5158 117.007,100.182 119,102.5C 122.566,105.699 126.4,108.533 130.5,111C 158.747,123.626 187.08,135.959 215.5,148C 206.299,160.299 202.466,174.132 204,189.5C 206.126,210.391 213.626,229.057 226.5,245.5C 220.061,251.562 212.727,256.396 204.5,260C 194.33,264.877 183.663,268.21 172.5,270C 158.187,271.689 143.853,273.189 129.5,274.5C 117.724,273.011 106.058,271.011 94.5,268.5 Z"/></g>
<g><path style="opacity:1" fill="#8ccafd" d="M 53.5,122.5 C 41.3964,123.683 36.2297,130.35 38,142.5C 41.486,152.161 47.986,155.161 57.5,151.5C 53.0874,158.209 46.7541,161.542 38.5,161.5C 19.0943,159.381 12.9276,149.048 20,130.5C 24.7853,119.896 30.952,110.229 38.5,101.5C 45.458,107.121 50.458,114.121 53.5,122.5 Z"/></g>
<g><path style="opacity:1" fill="#c852a0" d="M 92.5,107.5 C 83.7674,115.568 76.1008,124.568 69.5,134.5C 67.3687,131.445 66.702,128.111 67.5,124.5C 75.3714,118.071 83.7047,112.405 92.5,107.5 Z"/></g>
<g><path style="opacity:0.911" fill="#fefffe" d="M 280.5,123.5 C 280.5,125.167 280.5,126.833 280.5,128.5C 276.654,138.535 269.154,143.535 258,143.5C 251.585,144.327 248.252,141.66 248,135.5C 248.833,134.667 249.667,133.833 250.5,133C 256.717,133.064 262.717,132.064 268.5,130C 271.374,126.949 271.041,124.282 267.5,122C 261.402,120.02 255.735,121.02 250.5,125C 246.984,127.52 243.817,130.353 241,133.5C 236.655,130.385 236.322,126.718 240,122.5C 249.133,111.092 260.299,108.259 273.5,114C 276.885,116.529 279.218,119.696 280.5,123.5 Z"/></g>
<g><path style="opacity:1" fill="#fcfcfd" d="M 53.5,122.5 C 59.1871,131.577 60.5204,141.244 57.5,151.5C 47.986,155.161 41.486,152.161 38,142.5C 36.2297,130.35 41.3964,123.683 53.5,122.5 Z"/></g>
<g><path style="opacity:1" fill="#5b2235" d="M 154.5,130.5 C 155.552,130.351 156.552,130.517 157.5,131C 168.055,144.109 181.722,149.776 198.5,148C 199.517,149.049 199.684,150.216 199,151.5C 180.132,158.423 165.465,153.089 155,135.5C 154.506,133.866 154.34,132.199 154.5,130.5 Z"/></g>
<g><path style="opacity:1" fill="#5b2234" d="M 128.5,131.5 C 129.5,131.5 130.5,131.5 131.5,131.5C 132.116,136.05 130.949,140.05 128,143.5C 114.054,159.371 96.8878,164.537 76.5,159C 74.9632,157.89 74.2965,156.39 74.5,154.5C 97.3759,157.716 115.376,150.05 128.5,131.5 Z"/></g>
<g><path style="opacity:1" fill="#954493" d="M 222.5,151.5 C 249.751,165.746 258.251,187.413 248,216.5C 245.05,226.111 239.717,234.111 232,240.5C 218.742,219.049 213.075,195.715 215,170.5C 216.427,163.713 218.927,157.38 222.5,151.5 Z"/></g>
<g><path style="opacity:1" fill="#582032" d="M 167.5,164.5 C 179.426,163.562 187.259,168.896 191,180.5C 193.482,185.469 192.982,189.969 189.5,194C 186.975,194.896 184.808,194.396 183,192.5C 176.178,168.559 169.511,168.559 163,192.5C 161.267,194.602 159.267,194.935 157,193.5C 154.063,181.477 157.563,171.81 167.5,164.5 Z"/></g>
<g><path style="opacity:1" fill="#954493" d="M 66.5,240.5 C 50.7871,223.699 44.2871,203.699 47,180.5C 47.7388,177.454 48.5721,174.454 49.5,171.5C 52.1401,170.18 54.8068,168.847 57.5,167.5C 65.6343,181.203 69.6343,196.036 69.5,212C 69.6705,221.637 68.6705,231.137 66.5,240.5 Z"/></g>
<g><path style="opacity:1" fill="#592133" d="M 106.5,168.5 C 122.139,169.467 131.139,177.8 133.5,193.5C 132.417,198.378 129.417,200.211 124.5,199C 122.291,194.674 120.457,190.174 119,185.5C 114.851,179.916 110.184,179.249 105,183.5C 102.923,187.912 100.756,192.246 98.5,196.5C 93.9029,197.591 91.5696,195.591 91.5,190.5C 92.0853,179.953 97.0853,172.619 106.5,168.5 Z"/></g>
<g><path style="opacity:1" fill="#722a79" d="M 49.5,171.5 C 48.5721,174.454 47.7388,177.454 47,180.5C 44.2871,203.699 50.7871,223.699 66.5,240.5C 64.7072,245.419 62.3739,250.086 59.5,254.5C 39.8187,243.986 26.9853,227.986 21,206.5C 19.1698,194.488 21.1698,183.155 27,172.5C 34.3934,172.822 41.8934,172.489 49.5,171.5 Z"/></g>
<g><path style="opacity:1" fill="#c951a0" d="M 74.5,251.5 C 81.1917,257.196 87.8584,262.863 94.5,268.5C 85.8108,266.492 77.4774,263.492 69.5,259.5C 71.1916,256.769 72.8583,254.102 74.5,251.5 Z"/></g>
</svg>
