<?xml version="1.0" encoding="UTF-8"?>
<!DOCTYPE svg PUBLIC "-//W3C//DTD SVG 1.1//EN" "http://www.w3.org/Graphics/SVG/1.1/DTD/svg11.dtd">
<svg xmlns="http://www.w3.org/2000/svg" version="1.1" width="275px" height="290px" style="shape-rendering:geometricPrecision; text-rendering:geometricPrecision; image-rendering:optimizeQuality; fill-rule:evenodd; clip-rule:evenodd" xmlns:xlink="http://www.w3.org/1999/xlink">
<g><path style="opacity:0.857" fill="#fdfdfd" d="M 127.5,-0.5 C 132.833,-0.5 138.167,-0.5 143.5,-0.5C 160.529,4.8634 168.029,16.5301 166,34.5C 191.085,40.2504 200.418,55.5837 194,80.5C 189.616,87.8843 183.616,93.551 176,97.5C 175.912,102.65 175.079,107.65 173.5,112.5C 185.046,117.618 196.713,122.118 208.5,126C 207.299,125.097 206.465,123.931 206,122.5C 205.501,116.843 205.334,111.176 205.5,105.5C 198.749,106.705 192.915,105.038 188,100.5C 185.731,96.2865 186.231,92.4531 189.5,89C 194.398,87.6952 199.398,86.8619 204.5,86.5C 204.334,81.8215 204.501,77.1548 205,72.5C 209,64.4998 214.333,63.4998 221,69.5C 222.622,74.6884 223.456,80.0217 223.5,85.5C 228.351,85.3704 233.018,86.2038 237.5,88C 241.716,93.6087 241.383,98.9421 236.5,104C 232.261,105.663 227.927,105.829 223.5,104.5C 223.666,110.509 223.499,116.509 223,122.5C 221.132,126.521 217.965,128.687 213.5,129C 230.561,136.062 244.728,146.896 256,161.5C 268.19,181.415 269.523,202.082 260,223.5C 250.749,244.753 235.915,260.919 215.5,272C 196.254,282.057 175.92,287.891 154.5,289.5C 139.167,289.5 123.833,289.5 108.5,289.5C 78.7792,286.204 52.1125,275.37 28.5,257C 14.0372,244.395 4.37053,228.895 -0.5,210.5C -0.5,202.5 -0.5,194.5 -0.5,186.5C 6.72829,161.894 19.7283,140.727 38.5,123C 46.688,115.978 55.0213,109.144 63.5,102.5C 57.2031,94.4846 55.8697,85.6513 59.5,76C 47.5624,59.3492 49.5624,44.3492 65.5,31C 75.6076,24.7232 86.6076,22.0566 98.5,23C 104.81,10.8416 114.476,3.00828 127.5,-0.5 Z"/></g>
<g><path style="opacity:1" fill="#572032" d="M 130.5,6.5 C 142.809,5.23673 151.975,9.9034 158,20.5C 159.193,27.9219 157.693,34.7552 153.5,41C 165.953,40.5571 176.453,44.7238 185,53.5C 193.462,73.9089 186.962,86.9089 165.5,92.5C 170.331,101.18 168.998,108.846 161.5,115.5C 174.678,121.284 188.012,126.784 201.5,132C 217.909,138.28 232.409,147.447 245,159.5C 259.694,178.146 262.36,198.48 253,220.5C 243.249,241.918 227.749,257.751 206.5,268C 182.514,278.693 157.347,283.527 131,282.5C 99.4192,283.414 70.2525,275.58 43.5,259C 24.6609,246.505 12.4943,229.338 7,207.5C 5.15237,191.37 8.4857,176.37 17,162.5C 32.3103,138.023 52.1437,118.023 76.5,102.5C 62.8765,94.8593 61.2099,85.3593 71.5,74C 58.8589,67.1213 56.0256,57.288 63,44.5C 73.5813,32.3068 86.7479,28.1401 102.5,32C 107.288,18.3738 116.621,9.87383 130.5,6.5 Z"/></g>
<g><path style="opacity:1" fill="#954493" d="M 93.5,92.5 C 85.614,86.9722 85.614,81.3055 93.5,75.5C 94.1667,75.5 94.8333,75.5 95.5,75.5C 97.1401,74.6799 98.8068,73.8466 100.5,73C 96.5598,71.1135 93.0598,68.6135 90,65.5C 86.487,57.7243 88.6536,52.2243 96.5,49C 100.152,48.5014 103.818,48.3347 107.5,48.5C 107.833,48.5 108.167,48.5 108.5,48.5C 111.765,50.1538 115.098,51.8204 118.5,53.5C 118.833,52.8333 119.167,52.1667 119.5,51.5C 114.608,37.3069 118.274,25.9736 130.5,17.5C 136.292,15.9792 141.792,16.9792 147,20.5C 149.292,26.1611 148.626,31.4944 145,36.5C 141,41.1667 137,45.8333 133,50.5C 131.836,53.5667 132.836,55.2334 136,55.5C 146.559,51.31 157.392,50.4766 168.5,53C 179.012,57.5319 181.846,65.0319 177,75.5C 172.894,80.2072 167.727,83.0405 161.5,84C 153.507,84.4997 145.507,84.6664 137.5,84.5C 138.468,87.0439 140.135,89.2105 142.5,91C 150.226,91.8581 155.893,95.6914 159.5,102.5C 157.471,106.696 154.304,109.696 150,111.5C 139.379,107.36 129.713,101.693 121,94.5C 120.312,85.4653 115.812,82.632 107.5,86C 102.927,88.4542 98.2605,90.6209 93.5,92.5 Z"/></g>
<g><path style="opacity:1" fill="#722a78" d="M 130.5,17.5 C 118.274,25.9736 114.608,37.3069 119.5,51.5C 119.167,52.1667 118.833,52.8333 118.5,53.5C 115.098,51.8204 111.765,50.1538 108.5,48.5C 109.822,48.67 110.989,48.3366 112,47.5C 109.788,32.2473 115.954,22.2473 130.5,17.5 Z"/></g>
<g><path style="opacity:1" fill="#722a79" d="M 107.5,48.5 C 103.818,48.3347 100.152,48.5014 96.5,49C 88.6536,52.2243 86.487,57.7243 90,65.5C 93.0598,68.6135 96.5598,71.1135 100.5,73C 98.8068,73.8466 97.1401,74.6799 95.5,75.5C 95.5,74.5 95.5,73.5 95.5,72.5C 86.6288,70.9991 78.2954,67.8324 70.5,63C 67.2363,51.5581 71.5697,44.2248 83.5,41C 93.1862,38.6199 101.186,41.1199 107.5,48.5 Z"/></g>
<g><path style="opacity:0.781" fill="#fffefe" d="M 245.5,65.5 C 256.623,65.7902 261.456,71.4569 260,82.5C 256.02,91.0793 249.853,93.2459 241.5,89C 236.789,84.8604 235.289,79.6938 237,73.5C 239.074,69.9231 241.907,67.2565 245.5,65.5 Z"/></g>
<g><path style="opacity:1" fill="#ffe94b" d="M 245.5,73.5 C 252.628,73.7063 254.294,76.873 250.5,83C 243.574,82.9938 241.908,79.8271 245.5,73.5 Z"/></g>
<g><path style="opacity:1" fill="#ffe94e" d="M 212.5,73.5 C 213.5,73.5 214.5,73.5 215.5,73.5C 215.833,80.1667 216.167,86.8333 216.5,93.5C 221.844,93.334 227.177,93.5006 232.5,94C 233.833,95 233.833,96 232.5,97C 227.177,97.4994 221.844,97.666 216.5,97.5C 216.666,104.841 216.5,112.174 216,119.5C 215,120.833 214,120.833 213,119.5C 212.5,112.508 212.334,105.508 212.5,98.5C 206.455,98.6968 200.455,98.3635 194.5,97.5C 194.5,96.5 194.5,95.5 194.5,94.5C 200.5,94.5 206.5,94.5 212.5,94.5C 212.5,87.5 212.5,80.5 212.5,73.5 Z"/></g>
<g><path style="opacity:1" fill="#712978" d="M 93.5,75.5 C 85.614,81.3055 85.614,86.9722 93.5,92.5C 89.9938,95.9852 85.9938,96.4852 81.5,94C 72.7903,91.1491 71.457,86.4825 77.5,80C 82.6733,77.97 88.0067,76.47 93.5,75.5 Z"/></g>
<g><path style="opacity:1" fill="#e987ba" d="M 202.5,164.5 C 196.8,162.9 191.967,159.9 188,155.5C 183.591,149.349 180.258,142.683 178,135.5C 172.197,149.306 163.364,160.806 151.5,170C 166.524,178.853 177.857,191.02 185.5,206.5C 187.17,195.832 191.503,186.499 198.5,178.5C 199.339,203.347 207.339,225.681 222.5,245.5C 216.061,251.562 208.727,256.396 200.5,260C 190.33,264.877 179.663,268.21 168.5,270C 154.187,271.689 139.853,273.189 125.5,274.5C 113.724,273.011 102.058,271.011 90.5,268.5C 83.8584,262.863 77.1917,257.196 70.5,251.5C 77.6204,231.516 78.9538,211.183 74.5,190.5C 85.9727,198.481 94.8061,208.814 101,221.5C 107.145,204.387 116.145,189.053 128,175.5C 129.745,174.044 131.578,172.711 133.5,171.5C 119.746,167.708 107.912,160.708 98,150.5C 93.7597,145.683 89.7597,140.683 86,135.5C 86.9228,146.81 84.2561,157.144 78,166.5C 75.302,170.025 72.4686,173.358 69.5,176.5C 66.2719,167.034 61.2719,158.7 54.5,151.5C 63.909,135.35 75.2423,120.683 88.5,107.5C 95.391,101.885 103.058,97.552 111.5,94.5C 111.841,97.5158 113.007,100.182 115,102.5C 118.566,105.699 122.4,108.533 126.5,111C 154.268,123.551 182.268,135.551 210.5,147C 210.833,147.333 211.167,147.667 211.5,148C 207.584,152.999 204.584,158.499 202.5,164.5 Z"/></g>
<g><path style="opacity:0.821" fill="#fffefd" d="M 274.5,118.5 C 274.5,119.5 274.5,120.5 274.5,121.5C 272.019,126.918 267.686,129.585 261.5,129.5C 262.335,137.186 259.168,142.186 252,144.5C 244.832,142.186 241.665,137.186 242.5,129.5C 234.692,131.27 229.692,128.437 227.5,121C 229.819,113 235.153,109.833 243.5,111.5C 241.833,103.153 245,97.8194 253,95.5C 260.437,97.6923 263.27,102.692 261.5,110.5C 267.927,109.951 272.26,112.618 274.5,118.5 Z"/></g>
<g><path style="opacity:1" fill="#ffea50" d="M 251.5,103.5 C 252.496,103.414 253.329,103.748 254,104.5C 254.499,109.155 254.666,113.821 254.5,118.5C 258.555,118.176 262.555,118.509 266.5,119.5C 265.91,120.799 264.91,121.632 263.5,122C 260.518,122.498 257.518,122.665 254.5,122.5C 254.563,127.203 254.229,131.87 253.5,136.5C 252.5,136.5 251.5,136.5 250.5,136.5C 250.5,131.833 250.5,127.167 250.5,122.5C 245.821,122.666 241.155,122.499 236.5,122C 235.185,120.605 235.519,119.605 237.5,119C 241.821,118.501 246.154,118.334 250.5,118.5C 251.164,113.527 251.497,108.527 251.5,103.5 Z"/></g>
<g><path style="opacity:1" fill="#ca52a1" d="M 88.5,107.5 C 75.2423,120.683 63.909,135.35 54.5,151.5C 51.2804,148.117 47.6138,145.284 43.5,143C 56.9575,129.023 71.9575,117.19 88.5,107.5 Z"/></g>
<g><path style="opacity:1" fill="#fee63f" d="M 202.5,164.5 C 205.042,165.624 207.708,166.458 210.5,167C 205.998,170.336 201.998,174.169 198.5,178.5C 191.503,186.499 187.17,195.832 185.5,206.5C 177.857,191.02 166.524,178.853 151.5,170C 163.364,160.806 172.197,149.306 178,135.5C 180.258,142.683 183.591,149.349 188,155.5C 191.967,159.9 196.8,162.9 202.5,164.5 Z"/></g>
<g><path style="opacity:1" fill="#fee63f" d="M 74.5,190.5 C 70.5177,188.509 66.5177,186.509 62.5,184.5C 64.8558,181.814 67.1891,179.147 69.5,176.5C 72.4686,173.358 75.302,170.025 78,166.5C 84.2561,157.144 86.9228,146.81 86,135.5C 89.7597,140.683 93.7597,145.683 98,150.5C 107.912,160.708 119.746,167.708 133.5,171.5C 131.578,172.711 129.745,174.044 128,175.5C 116.145,189.053 107.145,204.387 101,221.5C 94.8061,208.814 85.9727,198.481 74.5,190.5 Z"/></g>
<g><path style="opacity:1" fill="#722a79" d="M 49.5,161.5 C 38.5878,186.646 40.7544,210.646 56,233.5C 57.7186,236.288 59.8852,238.621 62.5,240.5C 60.7072,245.419 58.3739,250.086 55.5,254.5C 9.64421,225.604 4.14421,190.271 39,148.5C 42.9881,152.498 46.4881,156.831 49.5,161.5 Z"/></g>
<g><path style="opacity:1" fill="#954493" d="M 218.5,151.5 C 245.751,165.746 254.251,187.413 244,216.5C 241.05,226.111 235.717,234.111 228,240.5C 214.742,219.049 209.075,195.715 211,170.5C 212.427,163.713 214.927,157.38 218.5,151.5 Z"/></g>
<g><path style="opacity:1" fill="#954493" d="M 49.5,161.5 C 62.934,180.673 68.1006,202.006 65,225.5C 64.3572,230.545 63.5238,235.545 62.5,240.5C 59.8852,238.621 57.7186,236.288 56,233.5C 40.7544,210.646 38.5878,186.646 49.5,161.5 Z"/></g>
<g><path style="opacity:1" fill="#c951a0" d="M 70.5,251.5 C 77.1917,257.196 83.8584,262.863 90.5,268.5C 81.8108,266.492 73.4774,263.492 65.5,259.5C 67.1916,256.769 68.8583,254.102 70.5,251.5 Z"/></g>
</svg>
