<?xml version="1.0" encoding="UTF-8"?>
<!DOCTYPE svg PUBLIC "-//W3C//DTD SVG 1.1//EN" "http://www.w3.org/Graphics/SVG/1.1/DTD/svg11.dtd">
<svg xmlns="http://www.w3.org/2000/svg" version="1.1" width="305px" height="295px" style="shape-rendering:geometricPrecision; text-rendering:geometricPrecision; image-rendering:optimizeQuality; fill-rule:evenodd; clip-rule:evenodd" xmlns:xlink="http://www.w3.org/1999/xlink">
<g><path style="opacity:0.876" fill="#fefcfc" d="M 240.5,-0.5 C 243.5,-0.5 246.5,-0.5 249.5,-0.5C 255.222,3.59786 258.388,9.26453 259,16.5C 262.96,9.7717 268.793,6.60504 276.5,7C 282.167,9 285.167,13 285.5,19C 284.101,27.16 282.768,35.3267 281.5,43.5C 281.607,46.567 282.107,49.567 283,52.5C 283.388,53.428 284.055,54.0946 285,54.5C 293.503,52.3876 300.003,55.0542 304.5,62.5C 304.5,65.8333 304.5,69.1667 304.5,72.5C 300.532,80.822 293.865,84.4886 284.5,83.5C 280.361,83.5865 276.361,82.9199 272.5,81.5C 272.167,81.8333 271.833,82.1667 271.5,82.5C 274.292,89.6149 274.125,96.6149 271,103.5C 263,111.5 255,111.5 247,103.5C 245.151,97.9168 243.484,92.2501 242,86.5C 241,85.1667 240,83.8333 239,82.5C 239.997,87.2131 239.663,91.8798 238,96.5C 229.544,105.452 222.044,115.119 215.5,125.5C 229.669,131.586 243.335,138.752 256.5,147C 280.789,164.203 289.956,187.37 284,216.5C 276.039,243.261 259.872,263.427 235.5,277C 216.254,287.057 195.92,292.891 174.5,294.5C 159.167,294.5 143.833,294.5 128.5,294.5C 98.7792,291.204 72.1125,280.37 48.5,262C 15.5765,232.06 10.4099,197.893 33,159.5C 39.9916,149.029 47.8249,139.195 56.5,130C 51.8962,126.4 46.8962,125.733 41.5,128C 36.1667,131.333 30.8333,134.667 25.5,138C 12.7874,138.954 7.28741,133.121 9,120.5C 11.1055,116.396 13.9389,112.896 17.5,110C 9.59189,110.215 3.59189,107.048 -0.5,100.5C -0.5,96.8333 -0.5,93.1667 -0.5,89.5C 0.782988,87.1318 2.44965,84.9651 4.5,83C 9.32532,81.0878 14.1587,79.2545 19,77.5C 17.0897,71.7178 16.423,65.7178 17,59.5C 24.423,49.1626 32.423,48.8293 41,58.5C 42.9203,61.3388 44.5869,64.3388 46,67.5C 46.6825,60.3005 49.8492,54.4672 55.5,50C 61.9363,47.3473 67.6029,48.5139 72.5,53.5C 78.1346,40.0358 88.1346,31.8692 102.5,29C 107.833,28.6667 113.167,28.3333 118.5,28C 132.105,4.90941 151.105,-1.09059 175.5,10C 184.742,17.6728 188.242,27.5061 186,39.5C 187.699,40.4061 189.533,40.7394 191.5,40.5C 190.118,27.0518 196.118,20.5518 209.5,21C 214.945,22.704 220.445,24.204 226,25.5C 226.833,25.1667 227.667,24.8333 228.5,24.5C 231.022,18.7332 232.856,12.7332 234,6.5C 235.694,3.64238 237.861,1.30904 240.5,-0.5 Z M 251.5,42.5 C 252.253,46.5169 252.92,50.6836 253.5,55C 253.167,55.5 252.833,56 252.5,56.5C 249.295,54.3984 245.962,52.5651 242.5,51C 246,48.6658 249,45.8325 251.5,42.5 Z M 210.5,52.5 C 215.238,52.7115 215.905,53.7115 212.5,55.5C 211.081,54.9953 210.415,53.9953 210.5,52.5 Z M 74.5,74.5 C 75.9314,76.437 77.5981,78.2703 79.5,80C 75.498,80.5634 73.8313,78.7301 74.5,74.5 Z M 46.5,88.5 C 47.7874,91.0748 49.1207,93.7415 50.5,96.5C 47.2156,97.657 43.8823,97.8236 40.5,97C 42.8785,94.4005 44.8785,91.5672 46.5,88.5 Z M 200.5,100.5 C 199.223,102.95 197.723,105.283 196,107.5C 194.488,103.202 195.988,100.869 200.5,100.5 Z"/></g>
<g><path style="opacity:1" fill="#ff1334" d="M 243.5,6.5 C 245.903,6.39297 247.736,7.39297 249,9.5C 253.711,21.7033 251.544,32.5366 242.5,42C 237.656,45.7057 232.156,47.5391 226,47.5C 218.306,46.4917 210.806,44.6584 203.5,42C 197.369,38.0385 197.036,33.7051 202.5,29C 208.432,28.3058 214.099,29.3058 219.5,32C 227.791,34.704 233.624,32.204 237,24.5C 238.46,19.5312 239.794,14.5312 241,9.5C 241.698,8.30943 242.531,7.30943 243.5,6.5 Z"/></g>
<g><path style="opacity:1" fill="#582031" d="M 208.5,67.5 C 205.047,71.6479 204.714,75.9812 207.5,80.5C 203.23,89.9852 195.897,95.6518 185.5,97.5C 190.331,106.18 188.998,113.846 181.5,120.5C 185.017,122.424 188.684,124.091 192.5,125.5C 201.985,111.37 212.318,97.8698 223.5,85C 231.085,83.5785 233.585,86.4119 231,93.5C 220.875,104.789 211.708,116.789 203.5,129.5C 216.061,134.446 228.394,139.946 240.5,146C 277.203,165.589 287.036,194.422 270,232.5C 256.038,256.118 235.871,271.951 209.5,280C 178.855,287.867 147.855,289.533 116.5,285C 86.9269,279.968 62.0935,266.468 42,244.5C 22.0367,217.77 21.3701,190.436 40,162.5C 47.5743,151.092 56.4076,140.759 66.5,131.5C 68.4251,135.008 71.4251,136.341 75.5,135.5C 71.8553,139.48 68.1886,143.48 64.5,147.5C 67.9582,150.456 71.2916,153.623 74.5,157C 75.4368,157.692 76.1034,157.525 76.5,156.5C 84.3893,152.61 92.7226,150.11 101.5,149C 96.3389,145.334 91.3389,141.501 86.5,137.5C 84.8729,135.37 83.0396,133.37 81,131.5C 80.2917,132.381 79.4584,133.047 78.5,133.5C 79.9889,129.757 79.8223,126.09 78,122.5C 74.6412,116.643 70.1412,111.976 64.5,108.5C 63.6586,106.621 63.3253,104.621 63.5,102.5C 64.552,102.351 65.552,102.517 66.5,103C 70.9822,108.649 75.9822,113.816 81.5,118.5C 86.6776,115.078 91.6776,111.411 96.5,107.5C 93.1951,105.525 90.1951,103.191 87.5,100.5C 92.2668,96.7217 92.6001,92.555 88.5,88C 86.5273,87.5045 84.5273,87.3379 82.5,87.5C 85.5661,85.0138 88.5661,82.1805 91.5,79C 81.6929,74.5524 77.8595,67.0524 80,56.5C 84.593,44.916 93.093,38.0827 105.5,36C 111.254,35.6045 116.92,35.9379 122.5,37C 131.902,14.6274 147.902,7.62739 170.5,16C 180.13,24.9633 181.13,34.9633 173.5,46C 185.953,45.5571 196.453,49.7238 205,58.5C 206.741,61.3093 207.908,64.3093 208.5,67.5 Z M 200.5,100.5 C 195.988,100.869 194.488,103.202 196,107.5C 197.723,105.283 199.223,102.95 200.5,100.5 Z"/></g>
<g><path style="opacity:1" fill="#ff1033" d="M 270.5,14.5 C 273.044,14.1043 275.211,14.771 277,16.5C 276.64,25.3592 275.807,34.1925 274.5,43C 274.01,48.8692 275.176,54.3692 278,59.5C 278.75,60.1258 279.584,60.6258 280.5,61C 284.833,61.3333 289.167,61.6667 293.5,62C 299.187,67.2379 298.521,71.5712 291.5,75C 278.349,78.1741 268.849,73.6741 263,61.5C 256.457,44.2241 258.957,28.5574 270.5,14.5 Z"/></g>
<g><path style="opacity:1" fill="#952d71" d="M 113.5,97.5 C 105.614,91.9722 105.614,86.3055 113.5,80.5C 114.167,80.5 114.833,80.5 115.5,80.5C 117.14,79.6799 118.807,78.8466 120.5,78C 116.56,76.1135 113.06,73.6135 110,70.5C 106.487,62.7243 108.654,57.2243 116.5,54C 120.152,53.5014 123.818,53.3347 127.5,53.5C 127.833,53.5 128.167,53.5 128.5,53.5C 132.043,54.8596 135.543,56.5263 139,58.5C 134.33,43.679 138.164,31.679 150.5,22.5C 167.39,19.8767 172.224,26.21 165,41.5C 161,46.1667 157,50.8333 153,55.5C 151.836,58.5667 152.836,60.2334 156,60.5C 166.559,56.31 177.392,55.4766 188.5,58C 199.012,62.5319 201.846,70.0319 197,80.5C 193.764,83.8709 189.931,86.3709 185.5,88C 176.234,89.3863 166.9,89.8863 157.5,89.5C 158.468,92.0439 160.135,94.2105 162.5,96C 170.226,96.8581 175.893,100.691 179.5,107.5C 177.471,111.696 174.304,114.696 170,116.5C 159.379,112.36 149.713,106.693 141,99.5C 140.297,90.4477 135.797,87.6144 127.5,91C 122.927,93.4542 118.261,95.6209 113.5,97.5 Z"/></g>
<g><path style="opacity:1" fill="#711c56" d="M 150.5,22.5 C 138.164,31.679 134.33,43.679 139,58.5C 135.543,56.5263 132.043,54.8596 128.5,53.5C 129.822,53.67 130.989,53.3366 132,52.5C 129.788,37.2473 135.954,27.2473 150.5,22.5 Z"/></g>
<g><path style="opacity:1" fill="#721c56" d="M 127.5,53.5 C 123.818,53.3347 120.152,53.5014 116.5,54C 108.654,57.2243 106.487,62.7243 110,70.5C 113.06,73.6135 116.56,76.1135 120.5,78C 118.807,78.8466 117.14,79.6799 115.5,80.5C 115.5,79.5 115.5,78.5 115.5,77.5C 106.629,75.9991 98.2954,72.8324 90.5,68C 87.2363,56.5581 91.5697,49.2248 103.5,46C 113.186,43.6199 121.186,46.1199 127.5,53.5 Z"/></g>
<g><path style="opacity:1" fill="#fe0c31" d="M 82.5,87.5 C 84.5273,87.3379 86.5273,87.5045 88.5,88C 92.6001,92.555 92.2668,96.7217 87.5,100.5C 76.9912,104.316 67.4912,102.65 59,95.5C 57.4138,93.3295 56.0804,90.9962 55,88.5C 53.4772,80.8984 53.1439,73.2318 54,65.5C 54.7246,63.0506 55.7246,60.7173 57,58.5C 60.6187,55.6572 63.952,55.9905 67,59.5C 67.0933,67.9094 67.76,76.2427 69,84.5C 69.8333,85.3333 70.6667,86.1667 71.5,87C 75.1516,87.4986 78.8183,87.6653 82.5,87.5 Z"/></g>
<g><path style="opacity:1" fill="#fe0f32" d="M 207.5,80.5 C 204.714,75.9812 205.047,71.6479 208.5,67.5C 226.841,53.0619 243.674,54.7286 259,72.5C 262.688,78.8976 265.188,85.7309 266.5,93C 265.87,99.8168 262.203,102.483 255.5,101C 254.667,100.167 253.833,99.3333 253,98.5C 252.201,92.1022 250.201,86.1022 247,80.5C 242.155,73.6599 235.655,71.1599 227.5,73C 223.039,75.0643 218.706,77.3977 214.5,80C 212.19,80.4966 209.857,80.6633 207.5,80.5 Z"/></g>
<g><path style="opacity:1" fill="#ff1233" d="M 26.5,59.5 C 28.9892,59.2978 31.3225,59.7978 33.5,61C 46.0226,80.9115 41.0226,94.2448 18.5,101C 13.788,102.443 9.9547,101.277 7,97.5C 6.2937,95.0288 6.62703,92.6954 8,90.5C 12.1606,87.9928 16.6606,86.1595 21.5,85C 23.3333,83.8333 24.8333,82.3333 26,80.5C 26.5318,75.2505 26.0318,70.0838 24.5,65C 24.3948,62.8218 25.0615,60.9885 26.5,59.5 Z"/></g>
<g><path style="opacity:1" fill="#711c56" d="M 113.5,80.5 C 105.614,86.3055 105.614,91.9722 113.5,97.5C 109.994,100.985 105.994,101.485 101.5,99C 92.7903,96.1491 91.457,91.4825 97.5,85C 102.708,83.0881 108.042,81.5881 113.5,80.5 Z"/></g>
<g><path style="opacity:1" fill="#e85a8f" d="M 110.5,273.5 C 103.858,267.863 97.1917,262.196 90.5,256.5C 92.8942,249.089 94.8942,241.589 96.5,234C 101.582,233.407 106.582,232.74 111.5,232C 106.508,234.161 101.841,236.828 97.5,240C 99.0174,241.508 100.851,242.342 103,242.5C 118.73,239.111 130.063,230.111 137,215.5C 137.781,214.056 137.614,212.723 136.5,211.5C 132.453,218.061 127.12,222.894 120.5,226C 123.909,221.585 127.742,217.419 132,213.5C 140.39,200.576 141.723,186.909 136,172.5C 134.414,169.659 132.58,166.993 130.5,164.5C 133.463,163.371 135.629,161.371 137,158.5C 138.861,154.364 140.028,150.031 140.5,145.5C 140.337,141.5 138.337,140 134.5,141C 132.011,145.635 130.011,150.469 128.5,155.5C 114.277,146.887 100.944,137.054 88.5,126C 101.705,115.286 116.039,106.453 131.5,99.5C 131.841,102.516 133.007,105.182 135,107.5C 138.566,110.699 142.4,113.533 146.5,116C 159.744,122.457 173.077,128.623 186.5,134.5C 181.858,140.976 177.025,147.309 172,153.5C 169.684,148.197 167.351,142.864 165,137.5C 163.667,136.167 162.333,136.167 161,137.5C 160.385,147.708 162.885,157.041 168.5,165.5C 161.457,179.445 161.957,193.112 170,206.5C 173.102,209.212 175.602,212.379 177.5,216C 176.551,216.617 175.718,216.451 175,215.5C 174.333,216.167 174.333,216.833 175,217.5C 190.721,230.973 208.221,233.973 227.5,226.5C 231.499,235.173 236.499,243.173 242.5,250.5C 236.061,256.562 228.727,261.396 220.5,265C 210.33,269.877 199.663,273.21 188.5,275C 174.515,276.642 160.515,278.142 146.5,279.5C 134.37,278.14 122.37,276.14 110.5,273.5 Z"/></g>
<g><path style="opacity:1" fill="#fe0c31" d="M 64.5,108.5 C 70.1412,111.976 74.6412,116.643 78,122.5C 79.8223,126.09 79.9889,129.757 78.5,133.5C 77.5,134.167 76.5,134.833 75.5,135.5C 71.4251,136.341 68.4251,135.008 66.5,131.5C 62.615,123.479 56.115,119.146 47,118.5C 38.7312,120.884 31.2312,124.717 24.5,130C 15.802,130.627 13.6353,127.127 18,119.5C 30.8605,104.576 46.3605,100.91 64.5,108.5 Z"/></g>
<g><path style="opacity:1" fill="#ca3775" d="M 86.5,137.5 C 82.8445,143.472 79.1778,149.472 75.5,155.5C 75.6236,156.107 75.9569,156.44 76.5,156.5C 76.1034,157.525 75.4368,157.692 74.5,157C 71.2916,153.623 67.9582,150.456 64.5,147.5C 68.1886,143.48 71.8553,139.48 75.5,135.5C 76.5,134.833 77.5,134.167 78.5,133.5C 79.4584,133.047 80.2917,132.381 81,131.5C 83.0396,133.37 84.8729,135.37 86.5,137.5 Z"/></g>
<g><path style="opacity:1" fill="#5b2033" d="M 141.5,130.5 C 147.655,131.154 151.488,134.487 153,140.5C 154.151,147.179 153.151,153.512 150,159.5C 146.474,163.766 143.974,163.266 142.5,158C 144.037,153.057 145.37,148.057 146.5,143C 145.664,138.828 143.664,135.328 140.5,132.5C 140.863,131.817 141.196,131.15 141.5,130.5 Z"/></g>
<g><path style="opacity:1" fill="#e6598d" d="M 86.5,137.5 C 91.3389,141.501 96.3389,145.334 101.5,149C 92.7226,150.11 84.3893,152.61 76.5,156.5C 75.9569,156.44 75.6236,156.107 75.5,155.5C 79.1778,149.472 82.8445,143.472 86.5,137.5 Z"/></g>
<g><path style="opacity:1" fill="#db5486" d="M 197.5,138.5 C 204.255,140.709 210.922,143.209 217.5,146C 211.727,144.936 205.893,143.769 200,142.5C 193.939,144.278 193.106,142.944 197.5,138.5 Z"/></g>
<g><path style="opacity:1" fill="#cd4f7d" d="M 224.5,150.5 C 226.97,150.027 229.304,150.861 231.5,153C 228.958,153.007 226.624,152.174 224.5,150.5 Z"/></g>
<g><path style="opacity:1" fill="#fdfdfd" d="M 197.5,151.5 C 227.227,153.678 239.727,169.345 235,198.5C 224.069,213.032 209.903,217.532 192.5,212C 173.089,202.099 168.256,187.266 178,167.5C 182.919,160.066 189.419,154.732 197.5,151.5 Z"/></g>
<g><path style="opacity:1" fill="#731c57" d="M 58.5,153.5 C 61.9988,156.166 64.9988,159.333 67.5,163C 60.8112,168.348 55.6446,174.848 52,182.5C 48.1541,201.973 55.3208,215.807 73.5,224C 71.4473,224.325 69.4473,223.991 67.5,223C 64.3939,221.364 61.2272,219.864 58,218.5C 56.5,218.667 55.6667,219.5 55.5,221C 57.5445,224.71 60.5445,227.376 64.5,229C 70.8774,231.849 77.5441,233.349 84.5,233.5C 83.886,243.009 80.886,251.676 75.5,259.5C 29.8186,230.741 24.1519,195.408 58.5,153.5 Z"/></g>
<g><path style="opacity:1" fill="#952d71" d="M 238.5,156.5 C 267.727,172.626 275.56,195.959 262,226.5C 258.554,233.723 253.887,240.056 248,245.5C 241.725,235.191 236.892,224.191 233.5,212.5C 245.273,201.739 248.44,188.739 243,173.5C 241.361,168.888 239.194,164.554 236.5,160.5C 237.18,159.14 237.847,157.807 238.5,156.5 Z"/></g>
<g><path style="opacity:1" fill="#fdfdfd" d="M 62.5,204.5 C 61.7756,194.925 62.7756,185.592 65.5,176.5C 73.5868,166.607 83.9202,159.94 96.5,156.5C 109.836,157.745 120.336,163.745 128,174.5C 135.862,191.22 132.362,205.054 117.5,216C 100.951,222.822 84.9513,221.822 69.5,213C 66.5532,210.564 64.2199,207.731 62.5,204.5 Z"/></g>
<g><path style="opacity:1" fill="#decae3" d="M 65.5,176.5 C 62.7756,185.592 61.7756,194.925 62.5,204.5C 60.5905,203.025 59.4238,201.025 59,198.5C 56.868,189.742 59.0347,182.409 65.5,176.5 Z"/></g>
<g><path style="opacity:1" fill="#592434" d="M 191.5,179.5 C 201.745,178.57 204.745,182.736 200.5,192C 191.336,196.148 187.169,193.314 188,183.5C 189.376,182.295 190.542,180.962 191.5,179.5 Z"/></g>
<g><path style="opacity:1" fill="#582232" d="M 106.5,182.5 C 116.175,182.672 118.842,187.172 114.5,196C 105.598,199.651 101.432,196.818 102,187.5C 103.025,185.313 104.525,183.646 106.5,182.5 Z"/></g>
<g><path style="opacity:1" fill="#c93775" d="M 90.5,256.5 C 97.1917,262.196 103.858,267.863 110.5,273.5C 101.811,271.492 93.4774,268.492 85.5,264.5C 87.1916,261.769 88.8583,259.102 90.5,256.5 Z"/></g>
</svg>
