<?xml version="1.0" encoding="UTF-8"?>
<!DOCTYPE svg PUBLIC "-//W3C//DTD SVG 1.1//EN" "http://www.w3.org/Graphics/SVG/1.1/DTD/svg11.dtd">
<svg xmlns="http://www.w3.org/2000/svg" version="1.1" width="278px" height="290px" style="shape-rendering:geometricPrecision; text-rendering:geometricPrecision; image-rendering:optimizeQuality; fill-rule:evenodd; clip-rule:evenodd" xmlns:xlink="http://www.w3.org/1999/xlink">
<g><path style="opacity:0.873" fill="#fdfdfc" d="M 127.5,-0.5 C 132.833,-0.5 138.167,-0.5 143.5,-0.5C 160.529,4.8634 168.029,16.5301 166,34.5C 180.158,36.9854 189.991,44.8187 195.5,58C 197.167,58.6667 198.833,58.6667 200.5,58C 193.656,45.5302 196.656,36.1968 209.5,30C 213.5,29.3333 217.5,29.3333 221.5,30C 225.314,32.6465 228.647,35.8132 231.5,39.5C 236.529,31.868 243.529,29.368 252.5,32C 263.558,37.1806 266.725,45.3472 262,56.5C 259.408,59.7621 256.241,62.2621 252.5,64C 253.293,65.0852 253.96,66.2519 254.5,67.5C 264.928,66.5447 272.595,70.5447 277.5,79.5C 277.5,83.1667 277.5,86.8333 277.5,90.5C 272.995,99.4257 265.662,103.759 255.5,103.5C 259.155,117.868 253.655,125.868 239,127.5C 228.706,126.54 223.04,120.873 222,110.5C 216.952,121.401 208.785,124.568 197.5,120C 190.356,114.877 187.856,108.044 190,99.5C 191.061,96.4384 192.894,93.9384 195.5,92C 193.246,90.6233 191.08,89.1233 189,87.5C 185.522,91.9822 181.188,95.3156 176,97.5C 175.912,102.65 175.079,107.65 173.5,112.5C 190.445,118.983 207.111,126.149 223.5,134C 266.759,158.187 276.926,192.354 254,236.5C 235.143,262.981 209.643,279.481 177.5,286C 169.696,287.233 162.029,288.399 154.5,289.5C 139.167,289.5 123.833,289.5 108.5,289.5C 78.7792,286.204 52.1125,275.37 28.5,257C 14.0372,244.395 4.37053,228.895 -0.5,210.5C -0.5,202.5 -0.5,194.5 -0.5,186.5C 6.72829,161.894 19.7283,140.727 38.5,123C 46.688,115.978 55.0213,109.144 63.5,102.5C 57.2031,94.4846 55.8697,85.6513 59.5,76C 47.5624,59.3492 49.5624,44.3492 65.5,31C 75.6076,24.7232 86.6076,22.0566 98.5,23C 104.81,10.8416 114.476,3.00828 127.5,-0.5 Z"/></g>
<g><path style="opacity:1" fill="#572032" d="M 130.5,6.5 C 142.809,5.23673 151.975,9.9034 158,20.5C 159.193,27.9219 157.693,34.7552 153.5,41C 165.953,40.5571 176.453,44.7238 185,53.5C 193.462,73.9089 186.962,86.9089 165.5,92.5C 170.331,101.18 168.998,108.846 161.5,115.5C 174.678,121.284 188.012,126.784 201.5,132C 217.909,138.28 232.409,147.447 245,159.5C 259.694,178.146 262.36,198.48 253,220.5C 243.249,241.918 227.749,257.751 206.5,268C 182.514,278.693 157.347,283.527 131,282.5C 99.4192,283.414 70.2525,275.58 43.5,259C 24.6609,246.505 12.4943,229.338 7,207.5C 5.15237,191.37 8.4857,176.37 17,162.5C 32.3103,138.023 52.1437,118.023 76.5,102.5C 62.8765,94.8593 61.2099,85.3593 71.5,74C 58.8589,67.1213 56.0256,57.288 63,44.5C 73.5813,32.3068 86.7479,28.1401 102.5,32C 107.288,18.3738 116.621,9.87383 130.5,6.5 Z"/></g>
<g><path style="opacity:1" fill="#954493" d="M 93.5,92.5 C 85.614,86.9722 85.614,81.3055 93.5,75.5C 94.1667,75.5 94.8333,75.5 95.5,75.5C 97.1401,74.6799 98.8068,73.8466 100.5,73C 96.5598,71.1135 93.0598,68.6135 90,65.5C 86.487,57.7243 88.6536,52.2243 96.5,49C 100.152,48.5014 103.818,48.3347 107.5,48.5C 107.833,48.5 108.167,48.5 108.5,48.5C 111.765,50.1538 115.098,51.8204 118.5,53.5C 118.833,52.8333 119.167,52.1667 119.5,51.5C 114.608,37.3069 118.274,25.9736 130.5,17.5C 136.292,15.9792 141.792,16.9792 147,20.5C 149.292,26.1611 148.626,31.4944 145,36.5C 141,41.1667 137,45.8333 133,50.5C 131.836,53.5667 132.836,55.2334 136,55.5C 146.559,51.31 157.392,50.4766 168.5,53C 179.012,57.5319 181.846,65.0319 177,75.5C 172.894,80.2072 167.727,83.0405 161.5,84C 153.507,84.4997 145.507,84.6664 137.5,84.5C 138.468,87.0439 140.135,89.2105 142.5,91C 150.226,91.8581 155.893,95.6914 159.5,102.5C 157.471,106.696 154.304,109.696 150,111.5C 139.379,107.36 129.713,101.693 121,94.5C 120.312,85.4653 115.812,82.632 107.5,86C 102.927,88.4542 98.2605,90.6209 93.5,92.5 Z"/></g>
<g><path style="opacity:1" fill="#722a78" d="M 130.5,17.5 C 118.274,25.9736 114.608,37.3069 119.5,51.5C 119.167,52.1667 118.833,52.8333 118.5,53.5C 115.098,51.8204 111.765,50.1538 108.5,48.5C 109.822,48.67 110.989,48.3366 112,47.5C 109.788,32.2473 115.954,22.2473 130.5,17.5 Z"/></g>
<g><path style="opacity:1" fill="#ffae0b" d="M 212.5,36.5 C 221.268,36.4346 225.435,40.7679 225,49.5C 221.867,55.3265 217.034,57.4932 210.5,56C 204.975,53.0812 203.142,48.5812 205,42.5C 207.114,39.8792 209.614,37.8792 212.5,36.5 Z"/></g>
<g><path style="opacity:1" fill="#ffb013" d="M 242.5,38.5 C 255.445,38.2628 259.111,43.7628 253.5,55C 244.983,59.2411 239.65,56.7411 237.5,47.5C 237.904,43.7712 239.571,40.7712 242.5,38.5 Z"/></g>
<g><path style="opacity:1" fill="#722a79" d="M 107.5,48.5 C 103.818,48.3347 100.152,48.5014 96.5,49C 88.6536,52.2243 86.487,57.7243 90,65.5C 93.0598,68.6135 96.5598,71.1135 100.5,73C 98.8068,73.8466 97.1401,74.6799 95.5,75.5C 95.5,74.5 95.5,73.5 95.5,72.5C 86.6288,70.9991 78.2954,67.8324 70.5,63C 67.2363,51.5581 71.5697,44.2248 83.5,41C 93.1862,38.6199 101.186,41.1199 107.5,48.5 Z"/></g>
<g><path style="opacity:1" fill="#ffae09" d="M 229.5,57.5 C 241.003,58.0027 247.337,64.0027 248.5,75.5C 246.937,90.6067 238.603,97.7734 223.5,97C 215.716,94.2694 211.716,88.7694 211.5,80.5C 212.287,68.717 218.287,61.0503 229.5,57.5 Z"/></g>
<g><path style="opacity:1" fill="#ffb015" d="M 196.5,65.5 C 207.368,65.2197 210.868,70.2197 207,80.5C 200.884,86.1381 195.551,85.4714 191,78.5C 189.571,72.7001 191.404,68.3668 196.5,65.5 Z"/></g>
<g><path style="opacity:1" fill="#712978" d="M 93.5,75.5 C 85.614,81.3055 85.614,86.9722 93.5,92.5C 89.9938,95.9852 85.9938,96.4852 81.5,94C 72.7903,91.1491 71.457,86.4825 77.5,80C 82.6733,77.97 88.0067,76.47 93.5,75.5 Z"/></g>
<g><path style="opacity:1" fill="#ffaf13" d="M 258.5,75.5 C 269.131,76.4304 272.298,81.7637 268,91.5C 262.835,96.766 257.669,96.766 252.5,91.5C 249.125,84.1929 251.125,78.8596 258.5,75.5 Z"/></g>
<g><path style="opacity:1" fill="#e987ba" d="M 90.5,268.5 C 83.8584,262.863 77.1917,257.196 70.5,251.5C 83.6174,215.072 78.2841,181.738 54.5,151.5C 63.909,135.35 75.2423,120.683 88.5,107.5C 95.391,101.885 103.058,97.552 111.5,94.5C 111.841,97.5158 113.007,100.182 115,102.5C 118.566,105.699 122.4,108.533 126.5,111C 154.747,123.626 183.08,135.959 211.5,148C 202.299,160.299 198.466,174.132 200,189.5C 202.126,210.391 209.626,229.057 222.5,245.5C 216.061,251.562 208.727,256.396 200.5,260C 190.33,264.877 179.663,268.21 168.5,270C 154.187,271.689 139.853,273.189 125.5,274.5C 113.724,273.011 102.058,271.011 90.5,268.5 Z"/></g>
<g><path style="opacity:1" fill="#ffaf12" d="M 202.5,95.5 C 214.431,95.5675 217.931,100.901 213,111.5C 206.068,116.417 200.735,115.083 197,107.5C 196.312,102.352 198.145,98.3518 202.5,95.5 Z"/></g>
<g><path style="opacity:1" fill="#ffb015" d="M 237.5,100.5 C 244.818,99.8162 248.818,103.15 249.5,110.5C 246.898,119.869 241.232,122.369 232.5,118C 227.802,110.267 229.469,104.434 237.5,100.5 Z"/></g>
<g><path style="opacity:1" fill="#ca52a1" d="M 88.5,107.5 C 75.2423,120.683 63.909,135.35 54.5,151.5C 51.2804,148.117 47.6138,145.284 43.5,143C 56.9575,129.023 71.9575,117.19 88.5,107.5 Z"/></g>
<g><path style="opacity:1" fill="#722a79" d="M 49.5,161.5 C 38.5878,186.646 40.7544,210.646 56,233.5C 57.7186,236.288 59.8852,238.621 62.5,240.5C 60.7072,245.419 58.3739,250.086 55.5,254.5C 9.64421,225.604 4.14421,190.271 39,148.5C 42.9881,152.498 46.4881,156.831 49.5,161.5 Z"/></g>
<g><path style="opacity:1" fill="#954493" d="M 218.5,151.5 C 245.751,165.746 254.251,187.413 244,216.5C 241.05,226.111 235.717,234.111 228,240.5C 214.742,219.049 209.075,195.715 211,170.5C 212.427,163.713 214.927,157.38 218.5,151.5 Z"/></g>
<g><path style="opacity:1" fill="#954493" d="M 49.5,161.5 C 62.934,180.673 68.1006,202.006 65,225.5C 64.3572,230.545 63.5238,235.545 62.5,240.5C 59.8852,238.621 57.7186,236.288 56,233.5C 40.7544,210.646 38.5878,186.646 49.5,161.5 Z"/></g>
<g><path style="opacity:1" fill="#582032" d="M 163.5,164.5 C 175.426,163.562 183.259,168.896 187,180.5C 189.482,185.469 188.982,189.969 185.5,194C 182.975,194.896 180.808,194.396 179,192.5C 172.178,168.559 165.511,168.559 159,192.5C 157.267,194.602 155.267,194.935 153,193.5C 150.063,181.477 153.563,171.81 163.5,164.5 Z"/></g>
<g><path style="opacity:1" fill="#592133" d="M 102.5,168.5 C 118.139,169.467 127.139,177.8 129.5,193.5C 128.417,198.378 125.417,200.211 120.5,199C 118.291,194.674 116.457,190.174 115,185.5C 110.851,179.916 106.184,179.249 101,183.5C 98.9227,187.912 96.756,192.246 94.5,196.5C 89.9029,197.591 87.5696,195.591 87.5,190.5C 88.0853,179.953 93.0853,172.619 102.5,168.5 Z"/></g>
<g><path style="opacity:1" fill="#c951a0" d="M 70.5,251.5 C 77.1917,257.196 83.8584,262.863 90.5,268.5C 81.8108,266.492 73.4774,263.492 65.5,259.5C 67.1916,256.769 68.8583,254.102 70.5,251.5 Z"/></g>
</svg>
