<?xml version="1.0" encoding="UTF-8"?>
<!DOCTYPE svg PUBLIC "-//W3C//DTD SVG 1.1//EN" "http://www.w3.org/Graphics/SVG/1.1/DTD/svg11.dtd">
<svg xmlns="http://www.w3.org/2000/svg" version="1.1" width="294px" height="290px" style="shape-rendering:geometricPrecision; text-rendering:geometricPrecision; image-rendering:optimizeQuality; fill-rule:evenodd; clip-rule:evenodd" xmlns:xlink="http://www.w3.org/1999/xlink">
<g><path style="opacity:0.865" fill="#fdfcfc" d="M 127.5,-0.5 C 132.833,-0.5 138.167,-0.5 143.5,-0.5C 160.529,4.8634 168.029,16.5301 166,34.5C 172.708,35.6229 178.708,38.2896 184,42.5C 185.731,40.3834 187.898,38.8834 190.5,38C 201.913,35.582 211.413,38.7486 219,47.5C 225.822,38.0032 234.988,33.8366 246.5,35C 255.639,38.9322 259.639,45.9322 258.5,56C 258.641,63.7467 256.641,70.9134 252.5,77.5C 257.628,79.1488 261.794,82.1488 265,86.5C 274.818,75.9474 284.318,75.9474 293.5,86.5C 293.5,91.1667 293.5,95.8333 293.5,100.5C 288.243,115.18 281.243,129.014 272.5,142C 266.655,145.454 260.988,145.12 255.5,141C 243.91,130.984 235.41,118.817 230,104.5C 225.391,106.51 220.558,107.01 215.5,106C 206.164,100.673 197.997,93.8392 191,85.5C 186.865,90.6401 181.865,94.6401 176,97.5C 175.942,102.519 175.108,107.352 173.5,112C 176.333,114.166 179.5,115.666 183,116.5C 200.656,104.611 216.99,106.278 232,121.5C 237.48,128.935 240.814,137.268 242,146.5C 265.85,167.903 271.85,193.569 260,223.5C 250.749,244.753 235.915,260.919 215.5,272C 196.254,282.057 175.92,287.891 154.5,289.5C 139.167,289.5 123.833,289.5 108.5,289.5C 78.7792,286.204 52.1125,275.37 28.5,257C 14.0372,244.395 4.37053,228.895 -0.5,210.5C -0.5,202.5 -0.5,194.5 -0.5,186.5C 6.72829,161.894 19.7283,140.727 38.5,123C 46.688,115.978 55.0213,109.144 63.5,102.5C 57.2031,94.4846 55.8697,85.6513 59.5,76C 47.5624,59.3492 49.5624,44.3492 65.5,31C 75.6076,24.7232 86.6076,22.0566 98.5,23C 104.81,10.8416 114.476,3.00828 127.5,-0.5 Z"/></g>
<g><path style="opacity:1" fill="#582031" d="M 185.5,53.5 C 185.712,58.6784 186.712,63.6784 188.5,68.5C 187.038,82.298 179.371,90.298 165.5,92.5C 170.331,101.18 168.998,108.846 161.5,115.5C 169.129,119.229 176.963,122.563 185,125.5C 194.75,115.666 205.916,113.833 218.5,120C 228.945,127.386 234.278,137.553 234.5,150.5C 258.133,169.024 264.3,192.357 253,220.5C 244.411,239.758 230.911,254.591 212.5,265C 196.002,274.166 178.336,279.499 159.5,281C 119.43,287.232 81.7632,280.565 46.5,261C 29.991,250.496 17.8243,236.329 10,218.5C 3.65315,198.796 5.98649,180.129 17,162.5C 32.3103,138.023 52.1437,118.023 76.5,102.5C 62.8765,94.8593 61.2099,85.3593 71.5,74C 58.8589,67.1213 56.0256,57.288 63,44.5C 73.5813,32.3068 86.7479,28.1401 102.5,32C 111.902,9.62739 127.902,2.62739 150.5,11C 160.13,19.9633 161.13,29.9633 153.5,41C 166.088,40.6302 176.755,44.7968 185.5,53.5 Z"/></g>
<g><path style="opacity:1" fill="#954493" d="M 93.5,92.5 C 85.614,86.9722 85.614,81.3055 93.5,75.5C 94.1667,75.5 94.8333,75.5 95.5,75.5C 97.1401,74.6799 98.8068,73.8466 100.5,73C 96.5598,71.1135 93.0598,68.6135 90,65.5C 86.487,57.7243 88.6536,52.2243 96.5,49C 100.152,48.5014 103.818,48.3347 107.5,48.5C 107.833,48.5 108.167,48.5 108.5,48.5C 111.765,50.1538 115.098,51.8204 118.5,53.5C 118.833,52.8333 119.167,52.1667 119.5,51.5C 114.608,37.3069 118.274,25.9736 130.5,17.5C 136.292,15.9792 141.792,16.9792 147,20.5C 149.292,26.1611 148.626,31.4944 145,36.5C 141,41.1667 137,45.8333 133,50.5C 131.836,53.5667 132.836,55.2334 136,55.5C 146.559,51.31 157.392,50.4766 168.5,53C 179.012,57.5319 181.846,65.0319 177,75.5C 172.894,80.2072 167.727,83.0405 161.5,84C 153.507,84.4997 145.507,84.6664 137.5,84.5C 138.468,87.0439 140.135,89.2105 142.5,91C 150.226,91.8581 155.893,95.6914 159.5,102.5C 157.471,106.696 154.304,109.696 150,111.5C 139.379,107.36 129.713,101.693 121,94.5C 120.312,85.4653 115.812,82.632 107.5,86C 102.927,88.4542 98.2605,90.6209 93.5,92.5 Z"/></g>
<g><path style="opacity:1" fill="#722a78" d="M 130.5,17.5 C 118.274,25.9736 114.608,37.3069 119.5,51.5C 119.167,52.1667 118.833,52.8333 118.5,53.5C 115.098,51.8204 111.765,50.1538 108.5,48.5C 109.822,48.67 110.989,48.3366 112,47.5C 109.788,32.2473 115.954,22.2473 130.5,17.5 Z"/></g>
<g><path style="opacity:1" fill="#722a79" d="M 107.5,48.5 C 103.818,48.3347 100.152,48.5014 96.5,49C 88.6536,52.2243 86.487,57.7243 90,65.5C 93.0598,68.6135 96.5598,71.1135 100.5,73C 98.8068,73.8466 97.1401,74.6799 95.5,75.5C 95.5,74.5 95.5,73.5 95.5,72.5C 86.6288,70.9991 78.2954,67.8324 70.5,63C 67.2363,51.5581 71.5697,44.2248 83.5,41C 93.1862,38.6199 101.186,41.1199 107.5,48.5 Z"/></g>
<g><path style="opacity:1" fill="#fe3054" d="M 188.5,68.5 C 186.712,63.6784 185.712,58.6784 185.5,53.5C 188.098,46.532 193.098,43.6987 200.5,45C 209.349,47.1799 215.849,52.3465 220,60.5C 223.896,50.4362 231.062,44.1028 241.5,41.5C 246.787,42.288 249.954,45.288 251,50.5C 251.93,59.5143 249.93,67.8477 245,75.5C 239.227,84.2718 232.394,92.1051 224.5,99C 222.5,99.6667 220.5,99.6667 218.5,99C 212.096,95.2654 206.263,90.7654 201,85.5C 196.584,79.9319 192.417,74.2652 188.5,68.5 Z"/></g>
<g><path style="opacity:1" fill="#712978" d="M 93.5,75.5 C 85.614,81.3055 85.614,86.9722 93.5,92.5C 89.9938,95.9852 85.9938,96.4852 81.5,94C 72.7903,91.1491 71.457,86.4825 77.5,80C 82.6733,77.97 88.0067,76.47 93.5,75.5 Z"/></g>
<g><path style="opacity:1" fill="#ff3155" d="M 243.5,85.5 C 253.761,84.3825 260.594,88.7158 264,98.5C 267.546,93.2866 272.046,89.12 277.5,86C 285.46,85.695 288.293,89.5283 286,97.5C 281.57,111.192 275.404,124.026 267.5,136C 265.5,136.667 263.5,136.667 261.5,136C 249.721,126.572 241.555,114.739 237,100.5C 235.908,94.0223 238.075,89.0223 243.5,85.5 Z"/></g>
<g><path style="opacity:1" fill="#e987ba" d="M 90.5,268.5 C 83.8584,262.863 77.1917,257.196 70.5,251.5C 73.7787,242.107 75.7787,232.44 76.5,222.5C 102.728,222.781 118.894,210.114 125,184.5C 128.56,169.509 124.393,157.342 112.5,148C 99.5773,142.308 89.4106,145.474 82,157.5C 76.7073,148.603 68.8739,144.603 58.5,145.5C 66.6564,131.347 76.6564,118.681 88.5,107.5C 95.391,101.885 103.058,97.552 111.5,94.5C 111.841,97.5158 113.007,100.182 115,102.5C 118.566,105.699 122.4,108.533 126.5,111C 143.151,119.159 160.151,126.493 177.5,133C 180.95,134.359 181.45,136.526 179,139.5C 166.819,129.442 154.486,129.109 142,138.5C 134.057,149.298 133.39,160.631 140,172.5C 154.565,194.693 175.065,203.693 201.5,199.5C 204.717,216.599 211.717,231.932 222.5,245.5C 219.909,248.466 216.909,250.966 213.5,253C 197.425,262.581 180.091,268.581 161.5,271C 149.657,272.065 137.824,273.232 126,274.5C 114.048,273.076 102.215,271.076 90.5,268.5 Z"/></g>
<g><path style="opacity:1" fill="#c952a1" d="M 88.5,107.5 C 76.6564,118.681 66.6564,131.347 58.5,145.5C 55.702,146.1 53.0354,147.1 50.5,148.5C 48.5689,146.196 46.2356,144.362 43.5,143C 56.9575,129.023 71.9575,117.19 88.5,107.5 Z"/></g>
<g><path style="opacity:1" fill="#fd2d53" d="M 201.5,124.5 C 212.11,124.616 219.276,129.616 223,139.5C 226.009,163.484 217.175,181.818 196.5,194.5C 179.801,193.56 165.301,187.56 153,176.5C 144.387,167.667 141.72,157.333 145,145.5C 148.976,138.764 154.809,136.264 162.5,138C 170.235,140.534 176.568,145.034 181.5,151.5C 184.088,141.818 189.088,133.651 196.5,127C 198.315,126.243 199.981,125.41 201.5,124.5 Z"/></g>
<g><path style="opacity:1" fill="#ff9fb0" d="M 200.5,128.5 C 207.987,128.81 213.154,132.477 216,139.5C 219.366,150.032 218.033,160.032 212,169.5C 209.333,173.5 206.667,177.5 204,181.5C 202.213,183.958 199.879,185.624 197,186.5C 193.795,185.202 192.795,182.868 194,179.5C 199.126,173.03 203.459,166.03 207,158.5C 211.045,148.176 208.379,140.176 199,134.5C 198.252,132.16 198.752,130.16 200.5,128.5 Z"/></g>
<g><path style="opacity:1" fill="#712979" d="M 45.5,210.5 C 48.5924,222.025 54.259,232.025 62.5,240.5C 60.7072,245.419 58.3739,250.086 55.5,254.5C 9.64421,225.604 4.14421,190.271 39,148.5C 40.1667,149.667 41.3333,150.833 42.5,152C 27.1025,162.536 23.2692,176.37 31,193.5C 34.9135,200.022 39.7468,205.689 45.5,210.5 Z"/></g>
<g><path style="opacity:1" fill="#fd2d53" d="M 99.5,210.5 C 102.911,204.68 106.078,198.68 109,192.5C 113.969,181.28 113.636,170.28 108,159.5C 105.838,155.632 102.672,154.132 98.5,155C 97.4258,155.739 96.7591,156.739 96.5,158C 97.5863,160.752 99.0863,163.252 101,165.5C 104.753,181.588 100.753,195.588 89,207.5C 87.6872,211.205 88.8539,213.538 92.5,214.5C 72.1031,216.293 54.9364,209.293 41,193.5C 30.8832,180.036 32.7165,168.536 46.5,159C 62.3756,148.781 74.0423,152.281 81.5,169.5C 84.5822,161.916 89.9155,156.416 97.5,153C 107.608,152.147 114.108,156.647 117,166.5C 119.154,184.502 113.32,199.169 99.5,210.5 Z"/></g>
<g><path style="opacity:1" fill="#ff9fb1" d="M 99.5,210.5 C 97.6366,212.705 95.3033,214.039 92.5,214.5C 88.8539,213.538 87.6872,211.205 89,207.5C 100.753,195.588 104.753,181.588 101,165.5C 99.0863,163.252 97.5863,160.752 96.5,158C 96.7591,156.739 97.4258,155.739 98.5,155C 102.672,154.132 105.838,155.632 108,159.5C 113.636,170.28 113.969,181.28 109,192.5C 106.078,198.68 102.911,204.68 99.5,210.5 Z"/></g>
<g><path style="opacity:1" fill="#954493" d="M 232.5,161.5 C 246.753,173.715 251.587,189.048 247,207.5C 244.006,220.495 237.673,231.495 228,240.5C 219.247,226.333 213.914,211 212,194.5C 221.524,185.149 228.357,174.149 232.5,161.5 Z"/></g>
<g><path style="opacity:1" fill="#944492" d="M 45.5,210.5 C 51.6422,214.569 58.3089,217.569 65.5,219.5C 64.9658,226.572 63.9658,233.572 62.5,240.5C 54.259,232.025 48.5924,222.025 45.5,210.5 Z"/></g>
<g><path style="opacity:1" fill="#c952a0" d="M 70.5,251.5 C 77.1917,257.196 83.8584,262.863 90.5,268.5C 81.8108,266.492 73.4774,263.492 65.5,259.5C 67.1916,256.769 68.8583,254.102 70.5,251.5 Z"/></g>
</svg>
