<?xml version="1.0" encoding="UTF-8"?>
<!DOCTYPE svg PUBLIC "-//W3C//DTD SVG 1.1//EN" "http://www.w3.org/Graphics/SVG/1.1/DTD/svg11.dtd">
<svg xmlns="http://www.w3.org/2000/svg" version="1.1" width="275px" height="290px" style="shape-rendering:geometricPrecision; text-rendering:geometricPrecision; image-rendering:optimizeQuality; fill-rule:evenodd; clip-rule:evenodd" xmlns:xlink="http://www.w3.org/1999/xlink">
<g><path style="opacity:0.862" fill="#fdfcfc" d="M 127.5,-0.5 C 132.833,-0.5 138.167,-0.5 143.5,-0.5C 160.529,4.8634 168.029,16.5301 166,34.5C 192.534,41.0718 201.368,57.2385 192.5,83C 199.968,82.0727 206.301,84.2393 211.5,89.5C 221.036,80.1969 230.536,80.1969 240,89.5C 255.31,79.5469 266.81,82.8803 274.5,99.5C 274.5,102.167 274.5,104.833 274.5,107.5C 269.431,117.706 261.098,122.206 249.5,121C 245.793,120.064 242.626,118.231 240,115.5C 234.037,119.298 227.537,120.465 220.5,119C 217.241,117.789 214.408,115.956 212,113.5C 204.184,120.454 195.684,121.287 186.5,116C 180.441,110.495 178.441,103.828 180.5,96C 178.837,95.7351 177.337,96.2351 176,97.5C 175.912,102.65 175.079,107.65 173.5,112.5C 190.445,118.983 207.111,126.149 223.5,134C 266.759,158.187 276.926,192.354 254,236.5C 235.143,262.981 209.643,279.481 177.5,286C 169.696,287.233 162.029,288.399 154.5,289.5C 139.167,289.5 123.833,289.5 108.5,289.5C 78.7792,286.204 52.1125,275.37 28.5,257C 14.0372,244.395 4.37053,228.895 -0.5,210.5C -0.5,202.5 -0.5,194.5 -0.5,186.5C 6.72829,161.894 19.7283,140.727 38.5,123C 46.688,115.978 55.0213,109.144 63.5,102.5C 57.2031,94.4846 55.8697,85.6513 59.5,76C 47.5624,59.3492 49.5624,44.3492 65.5,31C 75.6076,24.7232 86.6076,22.0566 98.5,23C 104.81,10.8416 114.476,3.00828 127.5,-0.5 Z"/></g>
<g><path style="opacity:1" fill="#572132" d="M 130.5,6.5 C 142.809,5.23673 151.975,9.9034 158,20.5C 159.193,27.9219 157.693,34.7552 153.5,41C 165.953,40.5571 176.453,44.7238 185,53.5C 193.462,73.9089 186.962,86.9089 165.5,92.5C 170.331,101.18 168.998,108.846 161.5,115.5C 174.678,121.284 188.012,126.784 201.5,132C 217.909,138.28 232.409,147.447 245,159.5C 259.694,178.146 262.36,198.48 253,220.5C 243.249,241.918 227.749,257.751 206.5,268C 182.514,278.693 157.347,283.527 131,282.5C 99.4192,283.414 70.2525,275.58 43.5,259C 24.6609,246.505 12.4943,229.338 7,207.5C 5.15237,191.37 8.4857,176.37 17,162.5C 32.3103,138.023 52.1437,118.023 76.5,102.5C 62.8765,94.8593 61.2099,85.3593 71.5,74C 58.8589,67.1213 56.0256,57.288 63,44.5C 73.5813,32.3068 86.7479,28.1401 102.5,32C 107.288,18.3738 116.621,9.87383 130.5,6.5 Z"/></g>
<g><path style="opacity:1" fill="#954493" d="M 93.5,92.5 C 85.614,86.9722 85.614,81.3055 93.5,75.5C 94.1667,75.5 94.8333,75.5 95.5,75.5C 97.1401,74.6799 98.8068,73.8466 100.5,73C 96.5598,71.1135 93.0598,68.6135 90,65.5C 86.487,57.7243 88.6536,52.2243 96.5,49C 100.152,48.5014 103.818,48.3347 107.5,48.5C 107.833,48.5 108.167,48.5 108.5,48.5C 111.765,50.1538 115.098,51.8204 118.5,53.5C 118.833,52.8333 119.167,52.1667 119.5,51.5C 114.608,37.3069 118.274,25.9736 130.5,17.5C 136.292,15.9792 141.792,16.9792 147,20.5C 149.292,26.1611 148.626,31.4944 145,36.5C 141,41.1667 137,45.8333 133,50.5C 131.836,53.5667 132.836,55.2334 136,55.5C 146.559,51.31 157.392,50.4766 168.5,53C 179.012,57.5319 181.846,65.0319 177,75.5C 172.894,80.2072 167.727,83.0405 161.5,84C 153.507,84.4997 145.507,84.6664 137.5,84.5C 138.468,87.0439 140.135,89.2105 142.5,91C 150.226,91.8581 155.893,95.6914 159.5,102.5C 157.471,106.696 154.304,109.696 150,111.5C 139.379,107.36 129.713,101.693 121,94.5C 120.312,85.4653 115.812,82.632 107.5,86C 102.927,88.4542 98.2605,90.6209 93.5,92.5 Z"/></g>
<g><path style="opacity:1" fill="#722a78" d="M 130.5,17.5 C 118.274,25.9736 114.608,37.3069 119.5,51.5C 119.167,52.1667 118.833,52.8333 118.5,53.5C 115.098,51.8204 111.765,50.1538 108.5,48.5C 109.822,48.67 110.989,48.3366 112,47.5C 109.788,32.2473 115.954,22.2473 130.5,17.5 Z"/></g>
<g><path style="opacity:1" fill="#722a79" d="M 107.5,48.5 C 103.818,48.3347 100.152,48.5014 96.5,49C 88.6536,52.2243 86.487,57.7243 90,65.5C 93.0598,68.6135 96.5598,71.1135 100.5,73C 98.8068,73.8466 97.1401,74.6799 95.5,75.5C 95.5,74.5 95.5,73.5 95.5,72.5C 86.6288,70.9991 78.2954,67.8324 70.5,63C 67.2363,51.5581 71.5697,44.2248 83.5,41C 93.1862,38.6199 101.186,41.1199 107.5,48.5 Z"/></g>
<g><path style="opacity:1" fill="#712978" d="M 93.5,75.5 C 85.614,81.3055 85.614,86.9722 93.5,92.5C 89.9938,95.9852 85.9938,96.4852 81.5,94C 72.7903,91.1491 71.457,86.4825 77.5,80C 82.6733,77.97 88.0067,76.47 93.5,75.5 Z"/></g>
<g><path style="opacity:1" fill="#582233" d="M 221.5,90.5 C 234.028,89.8488 239.194,95.5155 237,107.5C 229.628,114.436 222.628,114.103 216,106.5C 215.333,103.5 215.333,100.5 216,97.5C 217.666,95.0043 219.5,92.671 221.5,90.5 Z"/></g>
<g><path style="opacity:1" fill="#592333" d="M 195.5,90.5 C 205.605,91.0024 209.772,96.3358 208,106.5C 200.927,114.754 194.26,114.421 188,105.5C 185.793,97.9121 188.293,92.9121 195.5,90.5 Z"/></g>
<g><path style="opacity:1" fill="#572131" d="M 249.5,91.5 C 261.824,89.9919 267.324,95.3252 266,107.5C 261.793,112.902 256.293,114.736 249.5,113C 243.397,109.96 241.231,105.126 243,98.5C 244.694,95.6424 246.861,93.309 249.5,91.5 Z"/></g>
<g><path style="opacity:1" fill="#e987ba" d="M 90.5,268.5 C 83.8584,262.863 77.1917,257.196 70.5,251.5C 75.6205,236.962 77.9538,221.962 77.5,206.5C 91.2194,206.612 104.553,204.445 117.5,200C 134.964,191.286 135.964,180.953 120.5,169C 116.317,167.204 111.984,165.871 107.5,165C 93.4101,164.81 79.4101,165.476 65.5,167C 62.3909,161.398 58.7242,156.232 54.5,151.5C 63.909,135.35 75.2423,120.683 88.5,107.5C 95.391,101.885 103.058,97.552 111.5,94.5C 111.841,97.5158 113.007,100.182 115,102.5C 118.566,105.699 122.4,108.533 126.5,111C 154.747,123.626 183.08,135.959 211.5,148C 209.637,150.364 207.971,152.864 206.5,155.5C 192.029,156.094 178.029,158.927 164.5,164C 160.101,165.906 156.101,168.406 152.5,171.5C 147.852,176.06 147.352,181.06 151,186.5C 157.771,192.158 165.605,195.325 174.5,196C 183.186,196.168 191.852,196.668 200.5,197.5C 204.064,215.291 211.397,231.291 222.5,245.5C 216.061,251.562 208.727,256.396 200.5,260C 190.33,264.877 179.663,268.21 168.5,270C 154.187,271.689 139.853,273.189 125.5,274.5C 113.724,273.011 102.058,271.011 90.5,268.5 Z"/></g>
<g><path style="opacity:1" fill="#ca52a1" d="M 88.5,107.5 C 75.2423,120.683 63.909,135.35 54.5,151.5C 51.2804,148.117 47.6138,145.284 43.5,143C 56.9575,129.023 71.9575,117.19 88.5,107.5 Z"/></g>
<g><path style="opacity:1" fill="#722a7a" d="M 43.5,200.5 C 45.038,216.238 51.3714,229.571 62.5,240.5C 60.7072,245.419 58.3739,250.086 55.5,254.5C 9.64421,225.604 4.14421,190.271 39,148.5C 45.5903,154.856 51.0903,162.022 55.5,170C 46.7289,172.134 39.5622,176.634 34,183.5C 33.5222,191.212 36.6889,196.878 43.5,200.5 Z"/></g>
<g><path style="opacity:1" fill="#fdfcfc" d="M 193.5,163.5 C 203.855,164.772 214.188,166.272 224.5,168C 233.949,173.457 233.782,178.291 224,182.5C 208.618,188.266 192.784,189.933 176.5,187.5C 184.332,181.171 184.332,174.838 176.5,168.5C 182.114,166.299 187.781,164.632 193.5,163.5 Z"/></g>
<g><path style="opacity:1" fill="#954492" d="M 218.5,151.5 C 245.751,165.746 254.251,187.413 244,216.5C 241.05,226.111 235.717,234.111 228,240.5C 219.41,226.312 213.91,210.978 211.5,194.5C 219.197,193.101 226.53,190.601 233.5,187C 241.398,179.612 241.398,172.112 233.5,164.5C 228.126,160.597 222.126,158.264 215.5,157.5C 216.513,155.473 217.513,153.473 218.5,151.5 Z"/></g>
<g><path style="opacity:1" fill="#fdfcfc" d="M 86.5,171.5 C 96.7803,171.158 106.78,172.658 116.5,176C 125.701,181.43 125.701,186.763 116.5,192C 97.2643,198.442 77.5976,200.109 57.5,197C 63.888,192.506 65.2213,186.673 61.5,179.5C 62.3128,178.186 63.3128,177.019 64.5,176C 71.8585,174.029 79.1919,172.529 86.5,171.5 Z"/></g>
<g><path style="opacity:1" fill="#954493" d="M 43.5,200.5 C 50.5259,203.423 57.8592,205.089 65.5,205.5C 65.9933,217.312 64.9933,228.979 62.5,240.5C 51.3714,229.571 45.038,216.238 43.5,200.5 Z"/></g>
<g><path style="opacity:1" fill="#c951a0" d="M 70.5,251.5 C 77.1917,257.196 83.8584,262.863 90.5,268.5C 81.8108,266.492 73.4774,263.492 65.5,259.5C 67.1916,256.769 68.8583,254.102 70.5,251.5 Z"/></g>
</svg>
