<?xml version="1.0" encoding="UTF-8"?>
<!DOCTYPE svg PUBLIC "-//W3C//DTD SVG 1.1//EN" "http://www.w3.org/Graphics/SVG/1.1/DTD/svg11.dtd">
<svg xmlns="http://www.w3.org/2000/svg" version="1.1" width="277px" height="290px" style="shape-rendering:geometricPrecision; text-rendering:geometricPrecision; image-rendering:optimizeQuality; fill-rule:evenodd; clip-rule:evenodd" xmlns:xlink="http://www.w3.org/1999/xlink">
<g><path style="opacity:0.868" fill="#fdfcfc" d="M 135.5,-0.5 C 140.833,-0.5 146.167,-0.5 151.5,-0.5C 168.529,4.8634 176.029,16.5301 174,34.5C 200.174,40.8492 209.174,56.8492 201,82.5C 198.537,85.9646 195.704,89.1312 192.5,92C 196.114,102.744 203.614,108.91 215,110.5C 221.424,108.855 227.924,108.355 234.5,109C 240.025,111.919 241.858,116.419 240,122.5C 238.542,124.96 236.709,127.127 234.5,129C 238.115,132.619 240.949,136.786 243,141.5C 268.478,158.264 278.145,181.597 272,211.5C 264.331,239.504 247.498,260.004 221.5,273C 202.806,282.42 183.14,287.92 162.5,289.5C 147.167,289.5 131.833,289.5 116.5,289.5C 86.8198,286.215 60.1532,275.381 36.5,257C 3.57654,227.06 -1.59013,192.893 21,154.5C 27.1811,147.471 31.1811,139.471 33,130.5C 35.6745,128.129 38.8411,126.963 42.5,127C 51.7957,118.358 61.4624,110.192 71.5,102.5C 65.2031,94.4846 63.8697,85.6513 67.5,76C 55.5624,59.3492 57.5624,44.3492 73.5,31C 83.6076,24.7232 94.6076,22.0566 106.5,23C 112.81,10.8416 122.476,3.00828 135.5,-0.5 Z"/></g>
<g><path style="opacity:1" fill="#582132" d="M 111.5,281.5 C 113.101,278.416 113.768,275.083 113.5,271.5C 140.85,274.924 167.85,272.924 194.5,265.5C 196.794,269.252 200.128,270.419 204.5,269C 206.83,265.845 209.83,263.678 213.5,262.5C 214.172,260.47 214.838,258.47 215.5,256.5C 221.041,253.564 226.041,249.897 230.5,245.5C 225.98,239.779 221.98,233.779 218.5,227.5C 219.234,216.937 218.068,206.604 215,196.5C 211.356,198.021 207.523,198.855 203.5,199C 202.944,199.383 202.611,199.883 202.5,200.5C 182.298,199.822 167.132,190.822 157,173.5C 150.275,154.42 155.442,139.253 172.5,128C 159.597,122.882 146.93,117.216 134.5,111C 130.4,108.533 126.566,105.699 123,102.5C 121.007,100.182 119.841,97.5158 119.5,94.5C 111.058,97.552 103.391,101.885 96.5,107.5C 81.6404,115.509 68.307,125.675 56.5,138C 61.8907,138.269 67.224,137.769 72.5,136.5C 85.9979,133.762 96.3312,126.596 103.5,115C 104.833,114.333 106.167,114.333 107.5,115C 108.602,117.401 108.769,119.901 108,122.5C 105.867,126.933 102.7,130.433 98.5,133C 111.085,135.209 121.919,140.709 131,149.5C 142.945,169.648 140.445,187.815 123.5,204C 116.799,208.851 109.466,212.351 101.5,214.5C 97.0109,213.429 92.6776,213.429 88.5,214.5C 87.5,214.5 86.5,214.5 85.5,214.5C 84.7809,227.15 82.4475,239.483 78.5,251.5C 76.8583,254.102 75.1916,256.769 73.5,259.5C 77.9518,262.061 82.6185,264.061 87.5,265.5C 88.935,269.956 91.2683,273.956 94.5,277.5C 67.1015,271.225 44.6015,257.225 27,235.5C 11.0676,211.678 10.4009,187.345 25,162.5C 29.5833,154.751 34.75,147.418 40.5,140.5C 39.0499,139.15 38.3832,137.484 38.5,135.5C 40.5116,136.014 42.5116,136.18 44.5,136C 56.5384,123.167 69.8718,112.001 84.5,102.5C 70.8765,94.8593 69.2099,85.3593 79.5,74C 66.8589,67.1213 64.0256,57.288 71,44.5C 81.5813,32.3068 94.7479,28.1401 110.5,32C 119.885,9.63706 135.885,2.63706 158.5,11C 168.13,19.9633 169.13,29.9633 161.5,41C 173.953,40.5571 184.453,44.7238 193,53.5C 201.462,73.9089 194.962,86.9089 173.5,92.5C 178.331,101.18 176.998,108.846 169.5,115.5C 173.136,117.318 176.802,119.151 180.5,121C 185.176,120.785 189.843,120.118 194.5,119C 186.567,113.964 182.733,106.797 183,97.5C 183.561,96.9781 184.228,96.6448 185,96.5C 194.411,115.147 209.244,121.48 229.5,115.5C 234.472,116.627 234.805,118.793 230.5,122C 227.283,123.637 223.95,124.97 220.5,126C 228.216,131.05 233.716,137.883 237,146.5C 267.262,167.208 274.262,194.208 258,227.5C 247.675,245.492 233.175,258.992 214.5,268C 190.494,278.601 165.327,283.434 139,282.5C 129.824,282.309 120.657,281.976 111.5,281.5 Z"/></g>
<g><path style="opacity:1" fill="#954493" d="M 101.5,92.5 C 93.614,86.9722 93.614,81.3055 101.5,75.5C 102.167,75.5 102.833,75.5 103.5,75.5C 105.14,74.6799 106.807,73.8466 108.5,73C 104.56,71.1135 101.06,68.6135 98,65.5C 94.487,57.7243 96.6536,52.2243 104.5,49C 108.152,48.5014 111.818,48.3347 115.5,48.5C 115.833,48.5 116.167,48.5 116.5,48.5C 119.765,50.1538 123.098,51.8204 126.5,53.5C 126.833,52.8333 127.167,52.1667 127.5,51.5C 122.608,37.3069 126.274,25.9736 138.5,17.5C 144.292,15.9792 149.792,16.9792 155,20.5C 157.292,26.1611 156.626,31.4944 153,36.5C 149,41.1667 145,45.8333 141,50.5C 139.836,53.5667 140.836,55.2334 144,55.5C 154.559,51.31 165.392,50.4766 176.5,53C 187.012,57.5319 189.846,65.0319 185,75.5C 180.894,80.2072 175.727,83.0405 169.5,84C 161.507,84.4997 153.507,84.6664 145.5,84.5C 146.468,87.0439 148.135,89.2105 150.5,91C 158.226,91.8581 163.893,95.6914 167.5,102.5C 165.471,106.696 162.304,109.696 158,111.5C 147.379,107.36 137.713,101.693 129,94.5C 128.312,85.4653 123.812,82.632 115.5,86C 110.927,88.4542 106.261,90.6209 101.5,92.5 Z"/></g>
<g><path style="opacity:1" fill="#722a78" d="M 138.5,17.5 C 126.274,25.9736 122.608,37.3069 127.5,51.5C 127.167,52.1667 126.833,52.8333 126.5,53.5C 123.098,51.8204 119.765,50.1538 116.5,48.5C 117.822,48.67 118.989,48.3366 120,47.5C 117.788,32.2473 123.954,22.2473 138.5,17.5 Z"/></g>
<g><path style="opacity:1" fill="#722a79" d="M 115.5,48.5 C 111.818,48.3347 108.152,48.5014 104.5,49C 96.6536,52.2243 94.487,57.7243 98,65.5C 101.06,68.6135 104.56,71.1135 108.5,73C 106.807,73.8466 105.14,74.6799 103.5,75.5C 103.5,74.5 103.5,73.5 103.5,72.5C 94.6288,70.9991 86.2954,67.8324 78.5,63C 75.2363,51.5581 79.5697,44.2248 91.5,41C 101.186,38.6199 109.186,41.1199 115.5,48.5 Z"/></g>
<g><path style="opacity:0.954" fill="#fefffe" d="M 225.5,56.5 C 243.839,57.9618 250.339,67.2952 245,84.5C 236.674,92.9702 227.507,94.1368 217.5,88C 209.507,79.0403 209.507,70.0403 217.5,61C 220.099,59.205 222.766,57.705 225.5,56.5 Z"/></g>
<g><path style="opacity:0.929" fill="#fefffe" d="M 40.5,71.5 C 53.0515,71.3144 57.2182,76.9811 53,88.5C 48.2725,94.401 42.4391,95.901 35.5,93C 30.0919,88.5416 29.2586,83.375 33,77.5C 35.1141,74.8792 37.6141,72.8792 40.5,71.5 Z"/></g>
<g><path style="opacity:1" fill="#712978" d="M 101.5,75.5 C 93.614,81.3055 93.614,86.9722 101.5,92.5C 97.9938,95.9852 93.9938,96.4852 89.5,94C 80.7903,91.1491 79.457,86.4825 85.5,80C 90.6733,77.97 96.0067,76.47 101.5,75.5 Z"/></g>
<g><path style="opacity:1" fill="#e987ba" d="M 202.5,200.5 C 201.685,222.392 199.018,244.059 194.5,265.5C 167.85,272.924 140.85,274.924 113.5,271.5C 111.827,270.657 110.66,269.324 110,267.5C 105.434,250.105 102.601,232.438 101.5,214.5C 109.466,212.351 116.799,208.851 123.5,204C 140.445,187.815 142.945,169.648 131,149.5C 121.919,140.709 111.085,135.209 98.5,133C 102.7,130.433 105.867,126.933 108,122.5C 108.769,119.901 108.602,117.401 107.5,115C 106.167,114.333 104.833,114.333 103.5,115C 96.3312,126.596 85.9979,133.762 72.5,136.5C 79.0506,125.618 87.0506,115.951 96.5,107.5C 103.391,101.885 111.058,97.552 119.5,94.5C 119.841,97.5158 121.007,100.182 123,102.5C 126.566,105.699 130.4,108.533 134.5,111C 146.93,117.216 159.597,122.882 172.5,128C 155.442,139.253 150.275,154.42 157,173.5C 167.132,190.822 182.298,199.822 202.5,200.5 Z"/></g>
<g><path style="opacity:0.951" fill="#fefffe" d="M -0.5,118.5 C -0.5,115.167 -0.5,111.833 -0.5,108.5C 6.93375,93.4095 17.1004,91.4095 30,102.5C 37.8535,114.536 35.3535,123.702 22.5,130C 17.3476,132.122 12.3476,131.789 7.5,129C 3.96319,126.06 1.29652,122.56 -0.5,118.5 Z"/></g>
<g><path style="opacity:0.922" fill="#fefffe" d="M 276.5,108.5 C 276.5,110.5 276.5,112.5 276.5,114.5C 270.688,124.69 263.188,126.023 254,118.5C 251.815,113.013 252.149,107.68 255,102.5C 260.266,97.6738 265.766,97.3405 271.5,101.5C 273.434,103.724 275.101,106.058 276.5,108.5 Z"/></g>
<g><path style="opacity:1" fill="#c952a1" d="M 96.5,107.5 C 87.0506,115.951 79.0506,125.618 72.5,136.5C 67.224,137.769 61.8907,138.269 56.5,138C 68.307,125.675 81.6404,115.509 96.5,107.5 Z"/></g>
<g><path style="opacity:1" fill="#fefdfd" d="M 191.5,124.5 C 202.142,125.881 211.809,129.714 220.5,136C 232.701,147.588 235.534,161.088 229,176.5C 208.409,196.766 188.076,196.432 168,175.5C 159.489,164.119 159.489,152.786 168,141.5C 174.639,134.004 182.473,128.338 191.5,124.5 Z"/></g>
<g><path style="opacity:1" fill="#fefdfd" d="M 85.5,142.5 C 96.4631,141.657 106.796,143.824 116.5,149C 130.131,159.481 133.298,172.648 126,188.5C 112.563,206.154 95.396,210.987 74.5,203C 64.7057,199.537 57.8724,193.037 54,183.5C 51.7109,174.988 53.3776,167.321 59,160.5C 66.3345,152.098 75.1679,146.098 85.5,142.5 Z"/></g>
<g><path style="opacity:1" fill="#bd4c95" d="M 54.5,145.5 C 57.9758,144.357 61.6425,144.19 65.5,145C 63.3911,146.141 61.5578,147.641 60,149.5C 58.5679,147.561 56.7346,146.228 54.5,145.5 Z"/></g>
<g><path style="opacity:1" fill="#712a79" d="M 50.5,195.5 C 51.7822,213.056 58.4488,228.056 70.5,240.5C 68.7072,245.419 66.3739,250.086 63.5,254.5C 17.6442,225.604 12.1442,190.271 47,148.5C 49.3504,150.683 51.517,153.016 53.5,155.5C 42.8022,168.112 41.8022,181.446 50.5,195.5 Z"/></g>
<g><path style="opacity:1" fill="#954493" d="M 240.5,161.5 C 254.758,173.722 259.591,189.056 255,207.5C 252.006,220.495 245.673,231.495 236,240.5C 227.247,226.333 221.914,211 220,194.5C 228.438,189.396 234.771,182.396 239,173.5C 240.015,169.56 240.515,165.56 240.5,161.5 Z"/></g>
<g><path style="opacity:1" fill="#954493" d="M 50.5,195.5 C 57.4893,202.655 65.4893,208.322 74.5,212.5C 73.6347,221.89 72.3014,231.224 70.5,240.5C 58.4488,228.056 51.7822,213.056 50.5,195.5 Z"/></g>
<g><path style="opacity:1" fill="#85cafc" d="M 218.5,227.5 C 218.343,237.26 217.343,246.927 215.5,256.5C 214.838,258.47 214.172,260.47 213.5,262.5C 209.83,263.678 206.83,265.845 204.5,269C 200.128,270.419 196.794,269.252 194.5,265.5C 199.018,244.059 201.685,222.392 202.5,200.5C 202.611,199.883 202.944,199.383 203.5,199C 207.523,198.855 211.356,198.021 215,196.5C 218.068,206.604 219.234,216.937 218.5,227.5 Z"/></g>
<g><path style="opacity:1" fill="#85cbfd" d="M 101.5,214.5 C 102.601,232.438 105.434,250.105 110,267.5C 110.66,269.324 111.827,270.657 113.5,271.5C 113.768,275.083 113.101,278.416 111.5,281.5C 105.628,280.986 99.9614,279.653 94.5,277.5C 91.2683,273.956 88.935,269.956 87.5,265.5C 87.4249,262.794 87.0916,260.127 86.5,257.5C 86.2305,243.105 86.8972,228.772 88.5,214.5C 92.6776,213.429 97.0109,213.429 101.5,214.5 Z"/></g>
<g><path style="opacity:1" fill="#e386b8" d="M 88.5,214.5 C 86.8972,228.772 86.2305,243.105 86.5,257.5C 83.8333,255.5 81.1667,253.5 78.5,251.5C 82.4475,239.483 84.7809,227.15 85.5,214.5C 86.5,214.5 87.5,214.5 88.5,214.5 Z"/></g>
<g><path style="opacity:1" fill="#e686b8" d="M 218.5,227.5 C 221.98,233.779 225.98,239.779 230.5,245.5C 226.041,249.897 221.041,253.564 215.5,256.5C 217.343,246.927 218.343,237.26 218.5,227.5 Z"/></g>
<g><path style="opacity:1" fill="#c852a1" d="M 78.5,251.5 C 81.1667,253.5 83.8333,255.5 86.5,257.5C 87.0916,260.127 87.4249,262.794 87.5,265.5C 82.6185,264.061 77.9518,262.061 73.5,259.5C 75.1916,256.769 76.8583,254.102 78.5,251.5 Z"/></g>
</svg>
