<?xml version="1.0" encoding="UTF-8"?>
<!DOCTYPE svg PUBLIC "-//W3C//DTD SVG 1.1//EN" "http://www.w3.org/Graphics/SVG/1.1/DTD/svg11.dtd">
<svg xmlns="http://www.w3.org/2000/svg" version="1.1" width="267px" height="292px" style="shape-rendering:geometricPrecision; text-rendering:geometricPrecision; image-rendering:optimizeQuality; fill-rule:evenodd; clip-rule:evenodd" xmlns:xlink="http://www.w3.org/1999/xlink">
<g><path style="opacity:0.862" fill="#fdfcfc" d="M 218.5,-0.5 C 222.167,-0.5 225.833,-0.5 229.5,-0.5C 236.516,2.17607 243.182,5.67607 249.5,10C 257.087,18.0368 258.587,27.2035 254,37.5C 248.606,51.683 243.606,66.0163 239,80.5C 236.417,87.047 231.583,90.547 224.5,91C 236.934,100.857 240.1,113.024 234,127.5C 231.079,131.092 227.579,133.925 223.5,136C 239.615,144.448 252.115,156.615 261,172.5C 263.372,179.141 265.206,185.807 266.5,192.5C 266.5,195.833 266.5,199.167 266.5,202.5C 262.868,226.924 251.535,247.09 232.5,263C 209.093,279.745 183.093,289.245 154.5,291.5C 139.167,291.5 123.833,291.5 108.5,291.5C 78.7792,288.204 52.1125,277.37 28.5,259C 14.0372,246.395 4.37053,230.895 -0.5,212.5C -0.5,204.5 -0.5,196.5 -0.5,188.5C 6.72829,163.894 19.7283,142.727 38.5,125C 46.688,117.978 55.0213,111.144 63.5,104.5C 57.2031,96.4846 55.8697,87.6513 59.5,78C 47.5624,61.3492 49.5624,46.3492 65.5,33C 75.6076,26.7232 86.6076,24.0566 98.5,25C 112.105,1.90941 131.105,-4.09059 155.5,7C 164.742,14.6728 168.242,24.5061 166,36.5C 191.085,42.2504 200.418,57.5837 194,82.5C 189.616,89.8843 183.616,95.551 176,99.5C 175.912,104.65 175.079,109.65 173.5,114.5C 178.268,116.633 183.101,118.633 188,120.5C 185.297,106.339 190.463,95.8392 203.5,89C 208.083,87.8553 212.749,87.1887 217.5,87C 211.416,84.8731 206.249,81.3731 202,76.5C 199.823,56.9207 201.49,37.5874 207,18.5C 208.838,10.7993 212.672,4.46599 218.5,-0.5 Z"/></g>
<g><path style="opacity:1" fill="#562031" d="M 221.5,6.5 C 229.461,7.65464 236.794,10.488 243.5,15C 248.211,19.1396 249.711,24.3062 248,30.5C 242.469,46.0922 237.136,61.7589 232,77.5C 230.881,80.2906 228.881,81.9573 226,82.5C 220.816,80.1586 215.649,77.6586 210.5,75C 208.007,71.8256 207.007,68.159 207.5,64C 208.229,47.4573 211.063,31.2906 216,15.5C 217.343,12.1381 219.176,9.13813 221.5,6.5 Z"/></g>
<g><path style="opacity:1" fill="#582132" d="M 130.5,8.5 C 142.809,7.23673 151.975,11.9034 158,22.5C 159.193,29.9219 157.693,36.7552 153.5,43C 165.953,42.5571 176.453,46.7238 185,55.5C 193.462,75.9089 186.962,88.9089 165.5,94.5C 170.331,103.18 168.998,110.846 161.5,117.5C 174.678,123.284 188.012,128.784 201.5,134C 217.909,140.28 232.409,149.447 245,161.5C 259.694,180.146 262.36,200.48 253,222.5C 243.249,243.918 227.749,259.751 206.5,270C 182.514,280.693 157.347,285.527 131,284.5C 99.4192,285.414 70.2525,277.58 43.5,261C 24.6609,248.505 12.4943,231.338 7,209.5C 5.15237,193.37 8.4857,178.37 17,164.5C 32.3103,140.023 52.1437,120.023 76.5,104.5C 62.8765,96.8593 61.2099,87.3593 71.5,76C 58.8589,69.1213 56.0256,59.288 63,46.5C 73.5813,34.3068 86.7479,30.1401 102.5,34C 107.288,20.3738 116.621,11.8738 130.5,8.5 Z"/></g>
<g><path style="opacity:1" fill="#954493" d="M 93.5,94.5 C 85.614,88.9722 85.614,83.3055 93.5,77.5C 94.1667,77.5 94.8333,77.5 95.5,77.5C 97.1401,76.6799 98.8068,75.8466 100.5,75C 96.5598,73.1135 93.0598,70.6135 90,67.5C 86.487,59.7243 88.6536,54.2243 96.5,51C 100.152,50.5014 103.818,50.3347 107.5,50.5C 107.833,50.5 108.167,50.5 108.5,50.5C 111.765,52.1538 115.098,53.8204 118.5,55.5C 118.833,54.8333 119.167,54.1667 119.5,53.5C 114.608,39.3069 118.274,27.9736 130.5,19.5C 136.292,17.9792 141.792,18.9792 147,22.5C 149.292,28.1611 148.626,33.4944 145,38.5C 141,43.1667 137,47.8333 133,52.5C 131.836,55.5667 132.836,57.2334 136,57.5C 146.559,53.31 157.392,52.4766 168.5,55C 179.012,59.5319 181.846,67.0319 177,77.5C 172.894,82.2072 167.727,85.0405 161.5,86C 153.507,86.4997 145.507,86.6664 137.5,86.5C 138.468,89.0439 140.135,91.2105 142.5,93C 150.226,93.8581 155.893,97.6914 159.5,104.5C 157.471,108.696 154.304,111.696 150,113.5C 139.379,109.36 129.713,103.693 121,96.5C 120.312,87.4653 115.812,84.632 107.5,88C 102.927,90.4542 98.2605,92.6209 93.5,94.5 Z"/></g>
<g><path style="opacity:1" fill="#722a78" d="M 130.5,19.5 C 118.274,27.9736 114.608,39.3069 119.5,53.5C 119.167,54.1667 118.833,54.8333 118.5,55.5C 115.098,53.8204 111.765,52.1538 108.5,50.5C 109.822,50.67 110.989,50.3366 112,49.5C 109.788,34.2473 115.954,24.2473 130.5,19.5 Z"/></g>
<g><path style="opacity:1" fill="#722a79" d="M 107.5,50.5 C 103.818,50.3347 100.152,50.5014 96.5,51C 88.6536,54.2243 86.487,59.7243 90,67.5C 93.0598,70.6135 96.5598,73.1135 100.5,75C 98.8068,75.8466 97.1401,76.6799 95.5,77.5C 95.5,76.5 95.5,75.5 95.5,74.5C 86.6288,72.9991 78.2954,69.8324 70.5,65C 67.2363,53.5581 71.5697,46.2248 83.5,43C 93.1862,40.6199 101.186,43.1199 107.5,50.5 Z"/></g>
<g><path style="opacity:1" fill="#712978" d="M 93.5,77.5 C 85.614,83.3055 85.614,88.9722 93.5,94.5C 89.9938,97.9852 85.9938,98.4852 81.5,96C 72.7903,93.1491 71.457,88.4825 77.5,82C 82.6733,79.97 88.0067,78.47 93.5,77.5 Z"/></g>
<g><path style="opacity:1" fill="#572131" d="M 209.5,94.5 C 219.596,94.757 226.096,99.757 229,109.5C 230.385,124.782 223.552,130.948 208.5,128C 197.813,123.46 193.98,115.627 197,104.5C 199.887,99.4341 204.054,96.1008 209.5,94.5 Z"/></g>
<g><path style="opacity:1" fill="#e987ba" d="M 90.5,270.5 C 83.8584,264.863 77.1917,259.196 70.5,253.5C 73.3906,245.048 75.3906,236.382 76.5,227.5C 101.024,225.479 116.191,212.479 122,188.5C 122.756,165.247 112.256,149.414 90.5,141C 85.2375,139.561 79.9042,139.228 74.5,140C 69.0244,142.661 63.6911,145.494 58.5,148.5C 66.2406,133.76 76.2406,120.76 88.5,109.5C 95.391,103.885 103.058,99.552 111.5,96.5C 111.841,99.5158 113.007,102.182 115,104.5C 118.566,107.699 122.4,110.533 126.5,113C 154.747,125.626 183.08,137.959 211.5,150C 210.274,151.635 208.941,153.135 207.5,154.5C 196.69,143.76 183.69,138.593 168.5,139C 149.913,144.416 138.913,156.582 135.5,175.5C 138.651,201.315 152.984,216.315 178.5,220.5C 187.602,220.143 195.935,217.476 203.5,212.5C 208.021,225.213 214.354,236.88 222.5,247.5C 216.061,253.562 208.727,258.396 200.5,262C 190.33,266.877 179.663,270.21 168.5,272C 154.187,273.689 139.853,275.189 125.5,276.5C 113.724,275.011 102.058,273.011 90.5,270.5 Z"/></g>
<g><path style="opacity:1" fill="#c952a1" d="M 88.5,109.5 C 76.2406,120.76 66.2406,133.76 58.5,148.5C 56.8487,149.97 55.0153,151.303 53,152.5C 50.408,149.238 47.2413,146.738 43.5,145C 56.9575,131.023 71.9575,119.19 88.5,109.5 Z"/></g>
<g><path style="opacity:1" fill="#fdfdfd" d="M 166.5,146.5 C 186.718,147.18 201.218,156.513 210,174.5C 213.422,190.156 207.922,201.322 193.5,208C 172.039,215.025 156.539,208.192 147,187.5C 141.995,173.179 145.495,161.346 157.5,152C 160.564,150.141 163.564,148.308 166.5,146.5 Z"/></g>
<g><path style="opacity:1" fill="#fdfdfd" d="M 42.5,198.5 C 41.9573,189.949 42.9573,181.616 45.5,173.5C 49.5446,165.285 55.5446,158.785 63.5,154C 74.4559,146.781 85.4559,146.781 96.5,154C 114.321,166.806 118.155,182.973 108,202.5C 94.2325,219.657 77.3992,223.49 57.5,214C 50.9305,210.265 45.9305,205.099 42.5,198.5 Z"/></g>
<g><path style="opacity:1" fill="#712979" d="M 46.5,216.5 C 49.8177,226.481 55.151,235.147 62.5,242.5C 60.7072,247.419 58.3739,252.086 55.5,256.5C 9.64421,227.604 4.14421,192.271 39,150.5C 41.872,153.037 44.372,155.87 46.5,159C 26.6107,178.436 26.6107,197.603 46.5,216.5 Z"/></g>
<g><path style="opacity:1" fill="#954493" d="M 218.5,153.5 C 245.751,167.746 254.251,189.413 244,218.5C 241.05,228.111 235.717,236.111 228,242.5C 221.188,230.909 216.021,218.575 212.5,205.5C 221.016,191.566 221.683,177.233 214.5,162.5C 215.57,159.361 216.904,156.361 218.5,153.5 Z"/></g>
<g><path style="opacity:1" fill="#5c2837" d="M 170.5,171.5 C 176.597,170.263 179.43,172.597 179,178.5C 177.053,182.557 173.886,184.057 169.5,183C 166.616,178.826 166.949,174.993 170.5,171.5 Z"/></g>
<g><path style="opacity:1" fill="#5b2535" d="M 87.5,175.5 C 93.5679,176.076 96.0679,179.409 95,185.5C 92.9473,189.292 89.7806,190.458 85.5,189C 81.0883,183.714 81.755,179.214 87.5,175.5 Z"/></g>
<g><path style="opacity:1" fill="#decae2" d="M 45.5,173.5 C 42.9573,181.616 41.9573,189.949 42.5,198.5C 37.9686,189.547 38.9686,181.214 45.5,173.5 Z"/></g>
<g><path style="opacity:1" fill="#944392" d="M 46.5,216.5 C 52.1724,220.836 58.5058,223.836 65.5,225.5C 64.6079,231.186 63.6079,236.853 62.5,242.5C 55.151,235.147 49.8177,226.481 46.5,216.5 Z"/></g>
<g><path style="opacity:1" fill="#c952a0" d="M 70.5,253.5 C 77.1917,259.196 83.8584,264.863 90.5,270.5C 81.8108,268.492 73.4774,265.492 65.5,261.5C 67.1916,258.769 68.8583,256.102 70.5,253.5 Z"/></g>
</svg>
