<?xml version="1.0" encoding="UTF-8"?>
<!DOCTYPE svg PUBLIC "-//W3C//DTD SVG 1.1//EN" "http://www.w3.org/Graphics/SVG/1.1/DTD/svg11.dtd">
<svg xmlns="http://www.w3.org/2000/svg" version="1.1" width="267px" height="305px" style="shape-rendering:geometricPrecision; text-rendering:geometricPrecision; image-rendering:optimizeQuality; fill-rule:evenodd; clip-rule:evenodd" xmlns:xlink="http://www.w3.org/1999/xlink">
<g><path style="opacity:0.896" fill="#fdfcfc" d="M 127.5,-0.5 C 132.833,-0.5 138.167,-0.5 143.5,-0.5C 160.529,4.8634 168.029,16.5301 166,34.5C 191.085,40.2504 200.418,55.5837 194,80.5C 189.616,87.8843 183.616,93.551 176,97.5C 175.912,102.65 175.079,107.65 173.5,112.5C 186.117,117.762 198.783,122.929 211.5,128C 231.248,136.089 247.081,148.922 259,166.5C 262.759,174.228 265.259,182.228 266.5,190.5C 266.5,193.833 266.5,197.167 266.5,200.5C 263.912,216.085 258.078,230.419 249,243.5C 240.25,273.748 221.083,294.081 191.5,304.5C 182.5,304.5 173.5,304.5 164.5,304.5C 155.76,301.949 148.427,297.116 142.5,290C 107.205,292.591 74.2052,285.257 43.5,268C 21.3867,254.404 6.72,235.238 -0.5,210.5C -0.5,202.5 -0.5,194.5 -0.5,186.5C 6.72829,161.894 19.7283,140.727 38.5,123C 46.688,115.978 55.0213,109.144 63.5,102.5C 57.2031,94.4846 55.8697,85.6513 59.5,76C 47.5624,59.3492 49.5624,44.3492 65.5,31C 75.6076,24.7232 86.6076,22.0566 98.5,23C 104.81,10.8416 114.476,3.00828 127.5,-0.5 Z"/></g>
<g><path style="opacity:1" fill="#572032" d="M 130.5,6.5 C 142.827,5.2459 151.994,9.91257 158,20.5C 159.193,27.9219 157.693,34.7552 153.5,41C 165.953,40.5571 176.453,44.7238 185,53.5C 193.462,73.9089 186.962,86.9089 165.5,92.5C 170.331,101.18 168.998,108.846 161.5,115.5C 174.678,121.284 188.012,126.784 201.5,132C 217.909,138.28 232.409,147.447 245,159.5C 259.694,178.146 262.36,198.48 253,220.5C 251.333,224.167 249.667,227.833 248,231.5C 245.513,233.809 243.513,236.476 242,239.5C 235.528,265.975 219.695,284.475 194.5,295C 179.63,300.705 165.63,299.038 152.5,290C 150.126,287.961 148.126,285.628 146.5,283C 113.801,285.427 82.8009,279.427 53.5,265C -1.99119,230.508 -8.49119,188.341 34,138.5C 46.8462,124.811 61.0129,112.811 76.5,102.5C 62.8765,94.8593 61.2099,85.3593 71.5,74C 58.8589,67.1213 56.0256,57.288 63,44.5C 73.5813,32.3068 86.7479,28.1401 102.5,32C 107.288,18.3738 116.621,9.87383 130.5,6.5 Z"/></g>
<g><path style="opacity:1" fill="#954493" d="M 93.5,92.5 C 85.614,86.9722 85.614,81.3055 93.5,75.5C 94.1667,75.5 94.8333,75.5 95.5,75.5C 97.1401,74.6799 98.8068,73.8466 100.5,73C 96.5598,71.1135 93.0598,68.6135 90,65.5C 86.487,57.7243 88.6536,52.2243 96.5,49C 100.152,48.5014 103.818,48.3347 107.5,48.5C 107.833,48.5 108.167,48.5 108.5,48.5C 111.765,50.1538 115.098,51.8204 118.5,53.5C 118.833,52.8333 119.167,52.1667 119.5,51.5C 114.608,37.3069 118.274,25.9736 130.5,17.5C 136.292,15.9792 141.792,16.9792 147,20.5C 149.292,26.1611 148.626,31.4944 145,36.5C 141,41.1667 137,45.8333 133,50.5C 131.836,53.5667 132.836,55.2334 136,55.5C 146.559,51.31 157.392,50.4766 168.5,53C 179.012,57.5319 181.846,65.0319 177,75.5C 172.894,80.2072 167.727,83.0405 161.5,84C 153.507,84.4997 145.507,84.6664 137.5,84.5C 138.468,87.0439 140.135,89.2105 142.5,91C 150.226,91.8581 155.893,95.6914 159.5,102.5C 157.471,106.696 154.304,109.696 150,111.5C 139.379,107.36 129.713,101.693 121,94.5C 120.312,85.4653 115.812,82.632 107.5,86C 102.927,88.4542 98.2605,90.6209 93.5,92.5 Z"/></g>
<g><path style="opacity:1" fill="#722a78" d="M 130.5,17.5 C 118.274,25.9736 114.608,37.3069 119.5,51.5C 119.167,52.1667 118.833,52.8333 118.5,53.5C 115.098,51.8204 111.765,50.1538 108.5,48.5C 109.822,48.67 110.989,48.3366 112,47.5C 109.788,32.2473 115.954,22.2473 130.5,17.5 Z"/></g>
<g><path style="opacity:1" fill="#722a79" d="M 107.5,48.5 C 103.818,48.3347 100.152,48.5014 96.5,49C 88.6536,52.2243 86.487,57.7243 90,65.5C 93.0598,68.6135 96.5598,71.1135 100.5,73C 98.8068,73.8466 97.1401,74.6799 95.5,75.5C 95.5,74.5 95.5,73.5 95.5,72.5C 86.6288,70.9991 78.2954,67.8324 70.5,63C 67.2363,51.5581 71.5697,44.2248 83.5,41C 93.1862,38.6199 101.186,41.1199 107.5,48.5 Z"/></g>
<g><path style="opacity:1" fill="#712978" d="M 93.5,75.5 C 85.614,81.3055 85.614,86.9722 93.5,92.5C 89.9938,95.9852 85.9938,96.4852 81.5,94C 72.7903,91.1491 71.457,86.4825 77.5,80C 82.6733,77.97 88.0067,76.47 93.5,75.5 Z"/></g>
<g><path style="opacity:1" fill="#e987ba" d="M 90.5,268.5 C 83.8584,262.863 77.1917,257.196 70.5,251.5C 83.6174,215.072 78.2841,181.738 54.5,151.5C 63.909,135.35 75.2423,120.683 88.5,107.5C 95.391,101.885 103.058,97.552 111.5,94.5C 111.841,97.5158 113.007,100.182 115,102.5C 118.566,105.699 122.4,108.533 126.5,111C 154.747,123.626 183.08,135.959 211.5,148C 203.727,158.318 199.727,169.984 199.5,183C 199.914,196.072 202.747,208.572 208,220.5C 208.577,224.888 208.244,229.221 207,233.5C 202.406,226.904 196.573,221.738 189.5,218C 174.036,209.839 157.703,207.172 140.5,210C 133.552,211.381 128.052,214.881 124,220.5C 122.491,226.284 123.991,231.117 128.5,235C 135.633,239.565 143.3,243.065 151.5,245.5C 143.362,253.125 140.362,262.459 142.5,273.5C 124.941,274.473 107.607,272.806 90.5,268.5 Z"/></g>
<g><path style="opacity:1" fill="#ca52a1" d="M 88.5,107.5 C 75.2423,120.683 63.909,135.35 54.5,151.5C 51.2804,148.117 47.6138,145.284 43.5,143C 56.9575,129.023 71.9575,117.19 88.5,107.5 Z"/></g>
<g><path style="opacity:1" fill="#722a79" d="M 49.5,161.5 C 38.5878,186.646 40.7544,210.646 56,233.5C 57.7186,236.288 59.8852,238.621 62.5,240.5C 60.7072,245.419 58.3739,250.086 55.5,254.5C 9.64421,225.604 4.14421,190.271 39,148.5C 42.9881,152.498 46.4881,156.831 49.5,161.5 Z"/></g>
<g><path style="opacity:1" fill="#954493" d="M 218.5,151.5 C 246.76,166.616 254.76,188.949 242.5,218.5C 236.423,205.529 227.256,202.529 215,209.5C 210.809,196.835 209.476,183.835 211,170.5C 212.427,163.713 214.927,157.38 218.5,151.5 Z"/></g>
<g><path style="opacity:1" fill="#5a2133" d="M 164.5,156.5 C 172.28,157.274 176.947,161.607 178.5,169.5C 177.349,175.091 174.016,176.925 168.5,175C 161.947,169.603 160.613,163.436 164.5,156.5 Z"/></g>
<g><path style="opacity:1" fill="#954493" d="M 49.5,161.5 C 62.934,180.673 68.1006,202.006 65,225.5C 64.3572,230.545 63.5238,235.545 62.5,240.5C 59.8852,238.621 57.7186,236.288 56,233.5C 40.7544,210.646 38.5878,186.646 49.5,161.5 Z"/></g>
<g><path style="opacity:1" fill="#592133" d="M 90.5,163.5 C 99.6219,163.022 103.122,167.355 101,176.5C 95.9806,180.695 91.9806,179.695 89,173.5C 88.037,169.851 88.537,166.518 90.5,163.5 Z"/></g>
<g><path style="opacity:1" fill="#e2b08e" d="M 168.5,287.5 C 166.386,282.042 165.386,276.376 165.5,270.5C 168.226,270.736 170.559,269.903 172.5,268C 170.46,265.664 168.127,263.831 165.5,262.5C 165.965,258.938 167.132,255.605 169,252.5C 169.671,251.748 170.504,251.414 171.5,251.5C 174.113,252.435 176.779,252.602 179.5,252C 181.005,248.117 179.671,245.45 175.5,244C 169.078,241.446 162.745,238.946 156.5,236.5C 151.319,233.834 146.819,230.167 143,225.5C 142.176,222.16 143.343,219.827 146.5,218.5C 166.587,217.25 184.087,223.25 199,236.5C 201.713,241.295 204.046,246.295 206,251.5C 207.494,252.747 208.994,252.747 210.5,251.5C 211.108,247.936 212.275,244.603 214,241.5C 215.434,233.01 217.434,224.676 220,216.5C 223.578,212.673 227.244,212.673 231,216.5C 236.541,238.574 231.041,257.741 214.5,274C 206.328,278.92 197.995,283.587 189.5,288C 182.437,290.039 175.437,289.872 168.5,287.5 Z"/></g>
<g><path style="opacity:1" fill="#cc7e6b" d="M 146.5,218.5 C 143.343,219.827 142.176,222.16 143,225.5C 146.819,230.167 151.319,233.834 156.5,236.5C 148.387,234.964 140.887,231.964 134,227.5C 132.632,226.007 132.465,224.507 133.5,223C 137.474,220.398 141.807,218.898 146.5,218.5 Z"/></g>
<g><path style="opacity:1" fill="#cc7e6b" d="M 171.5,251.5 C 170.504,251.414 169.671,251.748 169,252.5C 167.132,255.605 165.965,258.938 165.5,262.5C 160.422,262.131 156.422,259.964 153.5,256C 154.842,252.458 157.008,249.625 160,247.5C 163.98,248.769 167.813,250.103 171.5,251.5 Z"/></g>
<g><path style="opacity:1" fill="#c951a0" d="M 70.5,251.5 C 77.1917,257.196 83.8584,262.863 90.5,268.5C 81.8108,266.492 73.4774,263.492 65.5,259.5C 67.1916,256.769 68.8583,254.102 70.5,251.5 Z"/></g>
<g><path style="opacity:1" fill="#cd7e6b" d="M 165.5,270.5 C 165.386,276.376 166.386,282.042 168.5,287.5C 156.752,284.628 151.419,277.294 152.5,265.5C 156.443,268.148 160.777,269.815 165.5,270.5 Z"/></g>
</svg>
